<?xml version="1.0" encoding="UTF-8"?>
<!DOCTYPE svg PUBLIC "-//W3C//DTD SVG 1.1//EN" "http://www.w3.org/Graphics/SVG/1.1/DTD/svg11.dtd">
<!-- Creator: CorelDRAW 2020 (64-Bit) -->
<svg xmlns="http://www.w3.org/2000/svg" xml:space="preserve" width="15.4mm" height="15.4mm" version="1.1" style="shape-rendering:geometricPrecision; text-rendering:geometricPrecision; image-rendering:optimizeQuality; fill-rule:evenodd; clip-rule:evenodd"
viewBox="0 0 123.17 123.17"
 xmlns:xlink="http://www.w3.org/1999/xlink"
 xmlns:xodm="http://www.corel.com/coreldraw/odm/2003">
 <defs>
  <style type="text/css">
   <![CDATA[
    .str0 {stroke:#2B2A29;stroke-width:1.6;stroke-miterlimit:22.9256}
    .fil2 {fill:none}
    .fil0 {fill:#2B2A29}
    .fil1 {fill:#50D927}
   ]]>
  </style>
   <clipPath id="id0">
    <path d="M61.58 0.8c33.57,0 60.78,27.21 60.78,60.78 0,33.57 -27.21,60.78 -60.78,60.78 -33.57,0 -60.78,-27.21 -60.78,-60.78 0,-33.57 27.21,-60.78 60.78,-60.78z"/>
   </clipPath>
 </defs>
 <g id="Слой_x0020_1">
  <metadata id="CorelCorpID_0Corel-Layer"/>
  <path class="fil0" d="M61.58 0.8c33.57,0 60.78,27.21 60.78,60.78 0,33.57 -27.21,60.78 -60.78,60.78 -33.57,0 -60.78,-27.21 -60.78,-60.78 0,-33.57 27.21,-60.78 60.78,-60.78z"/>
  <g style="clip-path:url(#id0)">
   <g id="_1843238218240">
    <path id="1" class="fil1" d="M38.72 61.39c0.84,-1.57 1.56,-3.25 2.34,-4.89l25.28 -53.21c0.78,-1.64 1.54,-3.24 2.33,-4.9 0.4,-0.82 2.23,-4.27 2.23,-4.99l-9.16 0.01c-0.55,0.64 -21.78,45.87 -23.01,48.32 -1.61,3.2 -3.04,6.64 -4.65,9.81 -0.62,1.21 -4.51,9.14 -4.59,9.87l9.24 -0.02zm-12.71 -9.79c1.44,-3.1 27.47,-57.49 27.5,-58.19l-5.95 0c-3.17,6.4 -19.86,41.67 -22.95,48.28 -1.02,2.18 -9.19,19.02 -9.24,19.73l5.96 -0.02 4.68 -9.8zm-22.07 9.79c1.23,-2.25 3.39,-7.15 4.68,-9.79l25.27 -53.22c0.42,-0.91 2.21,-4.29 2.24,-4.98l-2.7 -0.01 -22.98 48.36c-1.03,2.22 -9.18,18.96 -9.25,19.66l2.74 -0.03zm71.7 -67.9l-32.27 67.97 17.77 -0.02 32.25 -67.97 -17.75 0.02zm-12.77 131.22c0.49,-0.61 1.92,-3.89 2.37,-4.86 1.7,-3.68 27.71,-57.42 27.96,-58.47l-9.3 0.02 -30.3 63.33 9.27 -0.02zm14.48 0.01c0.24,-0.74 0.82,-1.79 1.16,-2.53 0.4,-0.86 0.77,-1.58 1.15,-2.4l18.65 -38.78c0.5,-0.99 9.09,-18.89 9.25,-19.65l-6.04 0c-0.25,0.78 -0.8,1.75 -1.17,2.53l-8.14 17.11c-1.56,3.31 -3.09,6.54 -4.67,9.8l-16.3 33.91 6.1 -0zm44.64 -63.35l-2.83 0.01c-0.25,0.82 -6.29,13.28 -6.97,14.74 -0.75,1.61 -1.5,3.25 -2.32,4.9 -0.51,1.02 -20.7,42.86 -20.93,43.69l2.77 -0.01 30.28 -63.33zm-73.46 63.33l30.33 -63.33 -17.77 0.02 -30.3 63.33 17.75 -0.02z"/>
   </g>
  </g>
  <path class="fil2 str0" d="M61.58 0.8c33.57,0 60.78,27.21 60.78,60.78 0,33.57 -27.21,60.78 -60.78,60.78 -33.57,0 -60.78,-27.21 -60.78,-60.78 0,-33.57 27.21,-60.78 60.78,-60.78z"/>
 </g>
</svg>
