<svg width="49" height="45" viewBox="0 0 49 45" fill="none" xmlns="http://www.w3.org/2000/svg">
<path fill-rule="evenodd" clip-rule="evenodd" d="M2.01268 3.73068C1.29977 3.86855 0.854081 4.21176 0.532416 4.5843C0.1442 5.03506 -0.00100314 5.60414 5.21166e-06 6.34923L0.0110971 35.9188C0.0110971 37.5958 -0.0715879 38.508 0.427547 39.1632C0.539474 39.3108 0.626193 39.4379 0.727028 39.5347C0.99525 39.7909 1.35523 40.0373 1.73034 40.1224C2.38274 40.272 2.896 40.2329 3.57966 40.2417H5.311H7.14016H11.0546V38.4142C11.0546 38.4122 8.74747 38.4171 5.19403 38.4132C2.76189 38.4103 1.85538 38.4904 1.88361 37.3611C1.87655 36.9269 1.89974 36.8077 1.87958 36.3745L1.8826 34.6643L1.88563 32.9111L1.87453 31.2068L1.87353 29.5123L1.87857 27.7532L1.88058 26.0607L1.88159 24.3006L1.87554 22.6178L1.87756 20.8705L1.87958 19.1828V17.413L1.87252 15.7371L1.87655 13.9829L1.87958 12.3011V10.5264L1.87453 8.85532L1.87857 7.10702C1.88159 5.69899 1.72832 5.48779 2.92221 5.48779H20.4686C21.3922 5.48779 21.8319 5.45063 22.0103 5.65597C22.1939 5.86815 22.1525 6.31696 22.1798 7.284V9.00297H24.0059C24.024 7.99095 24.1067 6.34434 23.9343 5.37338C23.903 5.22476 23.7276 4.91088 23.5793 4.71044C23.3837 4.44643 23.2345 4.30269 23.0792 4.16287C22.9037 4.00446 22.7303 3.93797 22.4873 3.83726C22.0255 3.64561 21.724 3.66321 21.245 3.66419L19.5853 3.66517L19.5046 3.66419L17.7702 3.6681L17.6865 3.66712L16.0389 3.67006L8.84226 3.6593L7.12402 3.66419L7.04235 3.66517L5.3826 3.66419H5.30697L3.57563 3.6681L3.49093 3.66712C3.14304 3.66224 2.31216 3.67104 2.01369 3.72873L2.01268 3.73068Z" fill="#535C69"/>
<path fill-rule="evenodd" clip-rule="evenodd" d="M3.55553 6.95635L3.31755 7.17342L3.25605 7.39049C3.22781 8.34482 3.23386 9.35782 3.24596 10.3151C3.25201 10.8108 3.26008 11.3046 3.26008 11.8013C3.26008 12.7752 3.22075 12.4555 3.57872 12.9297C4.1071 12.9415 4.74135 12.9659 5.3151 12.9542H7.11905L8.86854 12.9561L10.6765 12.9512H11.0526V12.6794C11.0526 11.3036 13.5302 8.98724 16.6016 8.98724C17.5041 8.98724 19.662 9.00582 20.7903 9.00582C20.7903 8.43185 20.8417 7.57627 20.6834 7.1744C20.3991 6.90355 20.4132 6.88399 19.9009 6.88497C17.4577 6.88595 14.712 6.84488 12.3474 6.89475C9.50784 6.95439 6.63302 6.84977 3.78644 6.90061L3.55553 6.95733V6.95635Z" fill="#B81668"/>
<path fill-rule="evenodd" clip-rule="evenodd" d="M3.31044 31.2273L3.25397 31.4218L3.2459 36.1964C3.24187 36.7763 3.46371 36.9904 4.0546 36.9914C6.26391 36.9963 8.47119 37.0041 10.6795 37.0051L11.0526 36.9865V30.9721C10.2983 30.9721 8.83823 30.9408 8.03155 30.9408C6.59767 30.9408 5.14867 30.9153 3.7158 30.9457L3.64319 30.9515L3.30943 31.2273H3.31044Z" fill="#B81668"/>
<path fill-rule="evenodd" clip-rule="evenodd" d="M3.57658 14.946C3.43138 15.1396 3.35172 15.0887 3.26298 15.3977C3.20248 16.2572 3.24886 18.5638 3.24987 19.6746C3.24987 19.8936 3.23475 20.1811 3.25794 20.3923C3.28718 20.669 3.39508 20.7306 3.51003 20.8792L3.53625 20.8841C3.91135 21.0445 4.84912 20.9897 5.33011 20.9692L7.09876 20.9682L8.88657 20.9721L10.6603 20.9672L11.0545 20.9663V14.9059L10.6613 14.9039L8.8785 14.902L7.11187 14.899L5.32506 14.9078C4.7503 14.8883 4.12613 14.8668 3.5786 14.944L3.57658 14.946Z" fill="#B81668"/>
<path fill-rule="evenodd" clip-rule="evenodd" d="M3.27212 28.4543C3.40926 29.171 4.12216 28.994 4.90868 28.994C5.62965 28.994 6.35567 28.9657 7.07765 28.9843L11.0536 28.9755V22.9209L4.56886 22.9248C3.95276 22.9239 3.39111 22.8368 3.26708 23.3737C3.19246 23.6944 3.25195 24.68 3.25498 25.0711C3.26103 26.1291 3.1733 27.4266 3.27313 28.4543H3.27212Z" fill="#B81668"/>
<path fill-rule="evenodd" clip-rule="evenodd" d="M8.88469 0.141122L8.75763 0.215435C8.63764 0.518553 8.56302 0.565487 8.56403 1.00647C8.56504 1.29981 8.55798 1.60098 8.56806 1.8904L8.56605 1.95885L8.56201 2.64233L8.82721 2.66384C9.94346 2.68731 11.0597 2.64038 12.177 2.65993C12.8203 2.67069 14.9519 2.76065 15.443 2.64918L15.441 1.94614C15.4783 1.69582 15.4561 1.28319 15.4561 1.00843C15.4571 0.575265 15.3946 0.498997 15.2676 0.200768C14.8057 0.065832 14.9348 0.00716404 14.23 0.021831L12.4502 0.0228088L12.3827 0.021831H10.7128L10.6614 0.0208532C10.1038 0.016942 9.35659 -0.0700821 8.88368 0.143078L8.88469 0.141122Z" fill="#535C69"/>
<path d="M43.246 11.7903H17.7578C15.6238 11.7903 13.8938 13.4678 13.8938 15.5372V40.253C13.8938 42.3224 15.6238 44 17.7578 44H43.246C45.38 44 47.11 42.3224 47.11 40.253V15.5372C47.11 13.4678 45.38 11.7903 43.246 11.7903Z" stroke="#535C69" stroke-width="2" stroke-miterlimit="22.9256"/>
<path d="M30.5024 11.7903V44" stroke="#535C69" stroke-width="2" stroke-miterlimit="22.9256"/>
<path d="M13.8938 27.8947H47.11" stroke="#535C69" stroke-width="2" stroke-miterlimit="22.9256"/>
<path fill-rule="evenodd" clip-rule="evenodd" d="M35.4705 19.6821C35.4705 20.2414 35.8859 20.5778 36.4315 20.5778H41.2373C42.4392 20.5778 42.7286 18.8383 40.9368 18.8383H36.7309C36.3679 18.8383 36.0916 18.8832 35.8607 19.024C35.6359 19.1609 35.4695 19.3721 35.4695 19.6821H35.4705Z" fill="#0076A4"/>
<path fill-rule="evenodd" clip-rule="evenodd" d="M18.5403 19.6821C18.5403 20.2414 18.9558 20.5778 19.5013 20.5778H24.3071C25.509 20.5778 25.7984 18.8383 24.0066 18.8383H19.8008C19.4378 18.8383 19.1615 18.8832 18.9305 19.024C18.7057 19.1609 18.5393 19.3721 18.5393 19.6821H18.5403Z" fill="#B81668"/>
<path fill-rule="evenodd" clip-rule="evenodd" d="M35.4705 33.958C35.4705 34.5173 35.8859 34.8536 36.4315 34.8536H41.2373C42.4392 34.8536 42.7286 33.1141 40.9368 33.1141H36.7309C36.3679 33.1141 36.0916 33.1591 35.8607 33.2999C35.6359 33.4368 35.4695 33.648 35.4695 33.958H35.4705Z" fill="#FEC909"/>
<path fill-rule="evenodd" clip-rule="evenodd" d="M35.4705 37.9729C35.4705 38.5322 35.8859 38.8685 36.4315 38.8685H41.2373C42.4392 38.8685 42.7286 37.129 40.9368 37.129H36.7309C36.3679 37.129 36.0916 37.174 35.8607 37.3148C35.6359 37.4517 35.4695 37.6629 35.4695 37.9729H35.4705Z" fill="#FEC909"/>
<path fill-rule="evenodd" clip-rule="evenodd" d="M21.8829 22.9764C22.4597 22.9764 22.8066 22.5736 22.8066 22.0446V17.3844C22.8066 16.2188 21.0127 15.9382 21.0127 17.6758V21.7542C21.0127 22.1062 21.0591 22.3741 21.2043 22.598C21.3455 22.816 21.5633 22.9774 21.8829 22.9774V22.9764Z" fill="#B81668"/>
<path fill-rule="evenodd" clip-rule="evenodd" d="M19.5084 38.4402C19.9158 38.8352 20.4552 38.7893 20.8414 38.4148L24.2396 35.1196C25.0896 34.2953 24.0258 32.8677 22.7593 34.0959L19.7857 36.9794C19.5286 37.2287 19.3662 37.4497 19.3057 37.7069C19.2472 37.9582 19.2825 38.2222 19.5084 38.4402Z" fill="#535C69"/>
<path fill-rule="evenodd" clip-rule="evenodd" d="M24.2739 38.4774C24.6823 38.0814 24.6339 37.5592 24.2477 37.1847L20.8495 33.8895C19.9995 33.0653 18.5273 34.0968 19.7938 35.325L22.7674 38.2085C23.0246 38.4578 23.2524 38.6153 23.5176 38.6739C23.7768 38.7306 24.048 38.6964 24.2739 38.4774Z" fill="#535C69"/>
</svg>
