<svg width="26" height="18" viewBox="0 0 26 18" fill="none" xmlns="http://www.w3.org/2000/svg">
<path d="M3.51491 1.81259H3.69412V1.63338V1.57001C3.69412 1.19065 3.84903 0.845601 4.10126 0.590731L4.10308 0.588909L4.10543 0.586562L3.97856 0.459974L4.10543 0.586561C4.35685 0.334586 4.70293 0.179216 5.08151 0.179216H7.33892C7.68595 0.179216 8.00562 0.308143 8.24958 0.520998L8.31734 0.588908C8.57126 0.843378 8.72631 1.19044 8.72631 1.57001V1.63338V1.81259H8.90552H17.1975H17.3767V1.63338V1.57001C17.3767 1.19065 17.5316 0.845602 17.7839 0.590732L17.7857 0.588921L17.7857 0.58887L17.788 0.586575L17.788 0.586561C18.0395 0.334586 18.3855 0.179216 18.7641 0.179216H21.0215C21.3686 0.179216 21.6882 0.308145 21.9322 0.521003L22 0.588908C22.2539 0.843378 22.4089 1.19044 22.4089 1.57001V1.63338V1.80856L22.584 1.81255C23.4628 1.83256 24.26 2.20162 24.8425 2.78762L24.8428 2.78788L24.8475 2.79256C24.8475 2.79256 24.8475 2.79257 24.8475 2.79257C25.4479 3.39431 25.8208 4.22478 25.8208 5.13481V14.4986C25.8208 15.4086 25.4479 16.2391 24.8475 16.8408L24.8428 16.8455L24.8428 16.8455C24.2424 17.4472 23.4139 17.8208 22.5062 17.8208H3.49383C2.58386 17.8208 1.75768 17.4473 1.15721 16.8455L1.15719 16.8455L1.15253 16.8408C0.552104 16.2391 0.179216 15.4086 0.179216 14.4986V5.13481C0.179216 4.22249 0.552057 3.39434 1.15253 2.79256L1.15721 2.78787L1.15721 2.78786C1.75764 2.18614 2.58613 1.81259 3.49383 1.81259H3.51491ZM22.5062 2.76368H21.4532C21.4581 2.73735 21.4607 2.71018 21.4607 2.6824V1.57001C21.4607 1.32825 21.2637 1.1303 21.0215 1.1303H18.7641C18.5219 1.1303 18.325 1.32825 18.325 1.57001V2.6824C18.325 2.71018 18.3276 2.73735 18.3325 2.76368H7.77055C7.77548 2.73735 7.77806 2.71018 7.77806 2.6824V1.57001C7.77806 1.32825 7.58111 1.1303 7.33892 1.1303H5.08151C4.83932 1.1303 4.64236 1.32825 4.64236 1.57001V2.6824C4.64236 2.71018 4.64494 2.73735 4.64987 2.76368H3.49383C2.19085 2.76368 1.12512 3.83229 1.12512 5.13716V14.5009C1.12512 15.8058 2.19085 16.8744 3.49383 16.8744H22.5062C23.8092 16.8744 24.8749 15.8058 24.8749 14.5009V5.13716C24.8749 3.83229 23.8092 2.76368 22.5062 2.76368Z" fill="#EEF2F4" stroke="#EEF2F4" stroke-width="0.358432"/>
<path d="M3.80298 6.64145H8.50747" stroke="#EEF2F4" stroke-width="2.00005" stroke-miterlimit="22.9256" stroke-linecap="round"/>
<path d="M6.15649 9V4.28526" stroke="#EEF2F4" stroke-width="2.00005" stroke-miterlimit="22.9256" stroke-linecap="round"/>
<path d="M17.5886 6.64145H22.2931" stroke="#EEF2F4" stroke-width="2.00005" stroke-miterlimit="22.9256" stroke-linecap="round"/>
</svg>
