<svg width="15" height="15" viewBox="0 0 15 15" fill="none" xmlns="http://www.w3.org/2000/svg">
<path d="M3.75 3.75V0.75C3.75 0.551088 3.82902 0.360322 3.96967 0.21967C4.11032 0.0790176 4.30109 0 4.5 0H14.25C14.4489 0 14.6397 0.0790176 14.7803 0.21967C14.921 0.360322 15 0.551088 15 0.75V10.5C15 10.6989 14.921 10.8897 14.7803 11.0303C14.6397 11.171 14.4489 11.25 14.25 11.25H11.25V14.2448C11.25 14.6617 10.9133 15 10.4948 15H0.75525C0.656042 15.0001 0.557788 14.9806 0.466112 14.9427C0.374436 14.9048 0.291139 14.8492 0.220988 14.779C0.150837 14.7089 0.0952092 14.6256 0.0572893 14.5339C0.0193694 14.4422 -9.82928e-05 14.344 3.7317e-07 14.2448L0.00225039 4.50525C0.00225039 4.08825 0.339 3.75 0.7575 3.75H3.75ZM5.25 3.75H10.4948C10.9118 3.75 11.25 4.08675 11.25 4.50525V9.75H13.5V1.5H5.25V3.75ZM4.87725 12L9.11925 7.75725L8.05875 6.69675L4.87725 9.879L3.285 8.2875L2.2245 9.348L4.87725 12Z" fill="#EEF2F4"/>
</svg>
