<svg width="18" height="18" viewBox="0 0 18 18" fill="none" xmlns="http://www.w3.org/2000/svg">
<g clip-path="url(#clip0_37_901)">
<path fill-rule="evenodd" clip-rule="evenodd" d="M0 2.13122C0 4.66005 2.13511 5.44045 5.4358 7.54568C5.90347 7.84419 7.21835 8.70561 7.49176 8.99986C7.20036 9.31401 6.12112 10.0034 5.60128 10.3474C2.19806 12.5977 0 13.2402 0 15.8671C0 17.037 1.21595 17.9979 2.69631 17.9979H15.2839C18.1655 17.9979 18.8976 14.6816 16.7823 14.6816C15.0717 14.6816 16.2013 16.1031 14.6849 16.1031C1.40302 16.1031 -0.51444 17.0142 6.08694 12.6232C11.9886 8.6985 12.8394 9.61252 5.1372 4.70127C-0.715899 0.969858 3.12261 1.89241 14.6849 1.89241C16.2031 1.89241 15.0717 3.3139 16.7823 3.3139C18.8976 3.3139 18.1655 -0.00244141 15.2839 -0.00244141H2.69631C1.21595 -0.00244141 0 0.958487 0 2.12837L0 2.13122Z" fill="#EEF2F4"/>
</g>
<defs>
<clipPath id="clip0_37_901">
<rect width="18" height="18" fill="white"/>
</clipPath>
</defs>
</svg>
