<svg width="39" height="38" viewBox="0 0 39 38" fill="none" xmlns="http://www.w3.org/2000/svg">
<path d="M8.68725 31.1795L0 38V1.94872C0 1.43189 0.205446 0.936222 0.571142 0.570766C0.936838 0.205311 1.43283 0 1.95 0H37.05C37.5672 0 38.0632 0.205311 38.4289 0.570766C38.7946 0.936222 39 1.43189 39 1.94872V29.2308C39 29.7476 38.7946 30.2433 38.4289 30.6087C38.0632 30.9742 37.5672 31.1795 37.05 31.1795H8.68725ZM17.55 21.4359V25.3333H21.45V21.4359H17.55ZM12.8057 11.3279L16.6316 12.0937C16.7401 11.5509 17.0007 11.05 17.383 10.6494C17.7653 10.2488 18.2536 9.96485 18.791 9.83071C19.3285 9.69656 19.893 9.71769 20.4189 9.89163C20.9448 10.0656 21.4104 10.3852 21.7617 10.8133C22.1129 11.2413 22.3353 11.7603 22.4029 12.3097C22.4706 12.8592 22.3807 13.4165 22.1438 13.9169C21.9068 14.4173 21.5326 14.8402 21.0645 15.1363C20.5965 15.4325 20.054 15.5897 19.5 15.5897H17.55V19.4872H19.5C20.7924 19.4868 22.0581 19.1197 23.1499 18.4286C24.2417 17.7375 25.1147 16.7508 25.6674 15.5833C26.2201 14.4157 26.4296 13.1154 26.2718 11.8335C26.1139 10.5517 25.5951 9.34093 24.7756 8.34217C23.9562 7.34342 22.8699 6.59771 21.6429 6.19178C20.416 5.78585 19.099 5.7364 17.8451 6.04917C16.5912 6.36194 15.4519 7.02409 14.5597 7.95857C13.6676 8.89306 13.0593 10.0615 12.8057 11.3279Z" fill="#AED72F"/>
</svg>
