<svg width="24" height="31" viewBox="0 0 24 31" fill="none" xmlns="http://www.w3.org/2000/svg">
<path d="M24 31H21V28.0476C21 26.8731 20.5259 25.7467 19.682 24.9161C18.8381 24.0856 17.6935 23.619 16.5 23.619H7.5C6.30653 23.619 5.16193 24.0856 4.31802 24.9161C3.47411 25.7467 3 26.8731 3 28.0476V31H0V28.0476C0 26.0901 0.790176 24.2127 2.1967 22.8285C3.60322 21.4443 5.51088 20.6667 7.5 20.6667H16.5C18.4891 20.6667 20.3968 21.4443 21.8033 22.8285C23.2098 24.2127 24 26.0901 24 28.0476V31ZM12 17.7143C10.8181 17.7143 9.64778 17.4852 8.55585 17.0401C7.46392 16.595 6.47177 15.9425 5.63604 15.1201C4.80031 14.2976 4.13738 13.3212 3.68508 12.2466C3.23279 11.172 3 10.0203 3 8.85714C3 7.69401 3.23279 6.54226 3.68508 5.46766C4.13738 4.39306 4.80031 3.41666 5.63604 2.5942C6.47177 1.77174 7.46392 1.11932 8.55585 0.67421C9.64778 0.229097 10.8181 -1.73321e-08 12 0C14.3869 3.50037e-08 16.6761 0.93316 18.364 2.5942C20.0518 4.25523 21 6.50808 21 8.85714C21 11.2062 20.0518 13.4591 18.364 15.1201C16.6761 16.7811 14.3869 17.7143 12 17.7143ZM12 14.7619C13.5913 14.7619 15.1174 14.1398 16.2426 13.0324C17.3679 11.9251 18 10.4232 18 8.85714C18 7.2911 17.3679 5.7892 16.2426 4.68185C15.1174 3.57449 13.5913 2.95238 12 2.95238C10.4087 2.95238 8.88258 3.57449 7.75736 4.68185C6.63214 5.7892 6 7.2911 6 8.85714C6 10.4232 6.63214 11.9251 7.75736 13.0324C8.88258 14.1398 10.4087 14.7619 12 14.7619Z" fill="#EEF2F4"/>
</svg>
