<svg width="47" height="43" viewBox="0 0 47 43" fill="none" xmlns="http://www.w3.org/2000/svg">
<path fill-rule="evenodd" clip-rule="evenodd" d="M43.8407 28.6087C43.7308 29.1715 43.6076 29.7323 43.4597 30.2868C43.4022 30.5015 43.3786 30.3207 43.357 30.485C43.2923 30.9831 42.4491 32.8584 42.1975 33.337C41.8011 34.0897 40.997 35.1794 40.5533 35.7103C40.4568 35.8253 39.9341 36.4477 39.8139 36.5709C39.552 36.839 39.2337 37.0115 38.9769 37.2806C38.7458 37.5219 36.4701 39.0377 36.1712 39.2103C35.8395 39.4023 34.6728 39.9589 34.1819 40.1397C33.5278 40.38 32.6312 40.5915 31.9277 40.7138C31.4923 40.7897 30.985 40.7969 30.5423 40.8503C30.2486 40.8863 28.4586 40.8853 28.17 40.8524C27.788 40.8093 27.0722 40.7497 26.6963 40.6891C25.772 40.5392 23.1142 39.6868 22.4898 39.2174C22.308 39.0809 21.509 38.6567 21.3231 38.5437C20.9976 38.3455 20.0856 37.715 19.8566 37.486C19.719 37.3473 19.6543 37.3278 19.5259 37.2118C19.2661 36.9776 19.0289 36.7188 18.7855 36.4672C18.4106 36.0821 18.5421 36.2639 18.0758 35.6507C18.0183 35.5758 18.0317 35.6713 17.8417 35.4269C16.7983 34.0846 15.5803 31.9772 15.2208 30.3649C15.0904 29.7816 14.9025 29.2095 14.8028 28.62C14.7227 28.1476 14.695 27.5766 14.6755 27.1022C14.6622 26.7725 14.6776 24.9619 14.7402 24.6343C14.8008 24.3149 14.8614 23.6525 14.9168 23.3362C15.0709 22.4705 15.7836 20.2717 16.1831 19.6196C16.369 19.3166 16.4891 19.0301 16.6576 18.7446C16.7397 18.6049 17.0725 18.1161 17.1639 18.0021C17.3169 17.8121 17.6907 17.2945 17.8263 17.1179C17.9814 16.9166 18.3521 16.4709 18.5277 16.2583C18.7413 15.9995 19.2753 15.5302 19.5331 15.3053C19.6769 15.18 19.8155 14.9848 20.0035 14.8287C20.1637 14.6963 20.3948 14.5484 20.557 14.4282C20.7963 14.2505 20.9966 14.0636 21.2892 13.8839C21.6682 13.6518 22.5709 13.1589 23.0012 12.9596C23.3586 12.7943 24.2264 12.3691 24.7255 12.2223C25.3407 12.0415 25.9805 11.8741 26.61 11.7396C27.0106 11.6543 27.5877 11.6636 27.98 11.5979C28.4463 11.5198 29.615 11.4756 30.1613 11.5219C30.7508 11.5722 31.3413 11.6348 31.9257 11.7293C32.3734 11.8012 33.4518 12.0929 33.7763 12.2377C34.0207 12.3465 34.64 12.5026 34.8906 12.6105C35.0816 12.6926 35.3342 12.8703 35.5242 12.9257C36.0315 13.0716 38.2878 14.4621 38.7489 14.915C39.474 15.6277 40.2093 16.3343 40.8655 17.1107C41.4715 17.8275 42.063 18.8596 42.5313 19.7603C42.9195 20.5069 43.5583 22.4078 43.737 23.29C43.8171 23.6844 43.8797 24.3663 43.927 24.7565C43.9598 25.0236 43.9999 26.7448 43.9804 27.0056C43.9444 27.4883 43.9331 28.1302 43.8397 28.6067L43.8407 28.6087ZM24.9155 9.98447C24.7183 10.041 23.4541 10.4887 23.0854 10.6489C22.4241 10.9375 21.7945 11.1645 21.2287 11.5136C20.669 11.8597 20.0548 12.1257 19.5341 12.5293C19.3616 12.6628 19.2148 12.8292 19.0443 12.9627C18.8841 13.089 18.7321 13.2092 18.5667 13.3365C18.4271 13.4433 18.4507 13.4557 18.3357 13.5573C18.2504 13.6333 18.1909 13.6508 18.1036 13.7237C17.9136 13.8829 18.0717 13.7391 17.6671 14.1366C17.0827 14.7096 16.599 15.3771 16.0414 15.9759C15.8914 16.1371 15.9305 16.0426 15.7826 16.2347C15.6593 16.3949 15.3677 16.8642 15.229 17.0881C15.0606 17.3592 14.9035 17.6509 14.7186 17.9425C14.1641 18.8216 14.0398 19.2632 13.8282 19.7469C12.3823 23.0559 12.1081 27.2809 13.1864 30.8311C13.3291 31.3005 13.4791 31.8109 13.6403 32.2443C13.6886 32.3737 14.3017 33.7262 14.4465 33.9953C14.7751 34.6063 15.0812 35.0962 15.4118 35.6282C15.4488 35.6887 15.4961 35.7421 15.5382 35.7997C15.5751 35.852 15.6049 35.8952 15.6532 35.9671C15.99 36.4631 16.6997 37.2159 16.9225 37.5363C17.3374 38.1319 18.1744 38.6998 18.6674 39.1969C18.9796 39.5122 19.5146 39.8377 19.946 40.1294C21.699 41.3115 23.9276 42.3395 26.3872 42.739C26.4344 42.7472 26.4786 42.7708 26.5258 42.779C26.6532 42.8006 26.8 42.855 26.9017 42.8786C27.3515 42.9844 27.8229 42.968 28.284 42.9834C28.9064 43.0039 29.5287 43.006 30.1511 42.9865C30.6841 42.97 31.2242 42.9813 31.747 42.8755C31.9144 42.8417 32.0736 42.7574 32.2851 42.7307C33.1005 42.6239 34.2087 42.3087 34.9183 42.0611C35.7347 41.7767 36.4844 41.3659 37.2526 41.0301C37.2814 41.0177 37.3081 40.9982 37.3317 40.9777C37.4652 40.8575 37.9715 40.5926 38.1646 40.4786C38.4449 40.3122 38.7274 40.075 39.0313 39.9374C39.0971 39.9076 39.361 39.6816 39.4812 39.583C39.6075 39.4793 39.6332 39.4721 39.741 39.3869C39.8447 39.3047 39.8611 39.2667 39.9423 39.2082C40.0778 39.1096 40.0542 39.0993 40.1579 39.01C40.237 38.9422 40.275 38.9289 40.3572 38.8693C40.6293 38.6731 40.4794 38.6742 40.7854 38.5191C40.8378 38.4924 40.7659 38.515 40.8419 38.439C41.1849 38.0991 41.5834 37.8105 41.8864 37.4336C42.0014 37.2898 42.0394 37.1553 42.1821 37.0074C42.3464 36.8369 42.3392 36.8061 42.5251 36.5925C42.6145 36.4908 43.1393 35.8171 43.2009 35.7083C43.8458 34.5734 44.5051 33.4386 45.0176 32.2381C45.3863 31.3754 45.5116 30.6853 45.7437 29.6809C45.9768 28.6724 46.0538 27.8693 46.1021 26.8547C46.1298 26.2744 46.0775 25.6932 46.0703 25.1119C46.0692 25.0462 46.0887 24.9784 46.0775 24.9137C46.0189 24.5624 45.9696 23.9206 45.8926 23.4923C45.8187 23.0805 45.7057 22.5968 45.604 22.1819C45.3678 21.2217 45.148 20.588 44.8338 19.7572C44.7588 19.559 44.4651 18.8545 44.3675 18.6696C44.2597 18.4653 43.7791 17.7053 43.6065 17.4321C43.4741 17.2216 43.3724 17.048 43.2327 16.8406C43.1506 16.7184 42.8928 16.3877 42.8199 16.2778C42.7028 16.1012 42.7018 15.9358 42.5169 15.792C42.3947 15.6976 42.4943 15.8229 42.367 15.6709C42.0383 15.2806 41.7713 14.8328 41.3903 14.4929C41.1243 14.2557 41.0216 14.077 40.7906 13.8849C40.6088 13.734 40.39 13.6025 40.2134 13.4526C39.9033 13.1876 39.5715 12.9494 39.2542 12.6936C39.1926 12.6433 39.1032 12.5509 39.0416 12.5088C38.4942 12.1391 37.9499 11.8289 37.3327 11.4489C36.735 11.0803 36.1763 10.8769 35.4872 10.5894C33.042 9.56752 30.2188 9.21732 27.5117 9.5172C26.724 9.60449 25.2062 9.89923 24.9124 9.98345L24.9155 9.98447Z" fill="#8491A4"/>
<path fill-rule="evenodd" clip-rule="evenodd" d="M2.01288 3.84315C1.30118 3.9859 0.854447 4.33918 0.533002 4.72327C0.144804 5.18747 0 5.77387 0 6.54205L0.0112968 37.0125C0.0112968 38.7399 -0.0708615 39.6806 0.427223 40.3554C0.539164 40.5073 0.62543 40.6388 0.727101 40.7384C0.995143 41.0023 1.35459 41.256 1.72943 41.3443C2.38157 41.4984 2.89711 41.4316 3.58005 41.4409L5.26738 41.4378L5.30948 41.4388L7.13237 41.4357C10.0726 41.4388 13.0129 41.4337 15.9531 41.4378L17.7329 41.4347H17.8027L19.4654 41.4378L19.489 41.4398L19.6667 41.4142L19.5116 41.2971C19.2025 41.1328 18.9539 40.9366 18.7033 40.7487C16.8681 39.3705 17.1916 39.5954 15.8576 39.5841C12.3094 39.5543 8.74165 39.5872 5.19035 39.5831C2.75949 39.58 1.8537 39.6621 1.88245 38.4996C1.87526 38.0529 1.89889 37.9296 1.87835 37.4829L1.88143 35.7206L1.88451 33.9141L1.87321 32.158L1.87218 30.4121L1.87732 28.5995L1.87937 26.8557L1.8804 25.0421L1.87424 23.3075L1.87629 21.5072L1.87835 19.7675V17.9436L1.87116 16.2172L1.87526 14.4087L1.87835 12.6762V10.8472L1.87321 9.12491L1.87629 7.32359C1.87937 5.87246 1.72635 5.65474 2.91868 5.65474H20.4523C21.3755 5.65474 21.8151 5.61572 21.9928 5.8283C22.1766 6.04705 22.0996 6.51022 22.1273 7.50639L22.1478 8.61142L22.1612 9.69591C22.7055 9.48743 23.2323 9.28204 23.7787 9.07767L23.9861 8.99962C23.9748 7.95621 24.1155 6.51433 23.9142 5.53664C23.8824 5.38362 23.7078 5.06012 23.5589 4.85267C23.3628 4.58052 23.2138 4.43264 23.0598 4.28886C22.8842 4.12557 22.7116 4.05677 22.4683 3.95304C22.0071 3.75586 21.7052 3.77332 21.2266 3.77435L19.5681 3.77537L19.488 3.77435L17.7544 3.77845L17.6702 3.77743L16.024 3.78051L8.83202 3.76921L7.11491 3.77435L7.03276 3.77537L5.37418 3.77435H5.29819L3.56773 3.77845L3.48249 3.77743C3.13434 3.77332 2.30454 3.78153 2.00672 3.8411L2.01288 3.84315Z" fill="#8491A4"/>
<path fill-rule="evenodd" clip-rule="evenodd" d="M3.5554 7.16748L3.31714 7.39136L3.25655 7.61525C3.22882 8.59909 3.23395 9.6425 3.24628 10.6284C3.25244 11.1398 3.26065 11.6482 3.26065 12.1607C3.26065 13.164 3.22163 12.8344 3.58004 13.3232C4.10791 13.3355 4.74156 13.3602 5.31461 13.3489H7.11696L8.86488 13.3509L10.6713 13.3458L12.4162 13.3448L14.2041 13.3458L15.9346 13.3489C16.1174 13.353 16.4871 13.3735 16.6545 13.352C16.902 13.3201 16.8989 13.2154 17.0817 13.0469C17.2122 12.9268 17.3313 12.859 17.4556 12.7368C17.9177 12.2788 19.0197 11.3945 19.5218 11.1943C19.6882 10.878 20.5447 10.7023 20.7645 10.345C20.7645 9.75342 20.8282 7.80626 20.671 7.39239C20.3866 7.11305 20.4009 7.09354 19.8895 7.09354C17.4484 7.09457 14.7043 7.05246 12.3412 7.10381C9.50366 7.16543 6.6312 7.0576 3.78647 7.10997L3.5554 7.16851V7.16748Z" fill="#8491A4"/>
<path fill-rule="evenodd" clip-rule="evenodd" d="M3.30999 32.1785L3.25351 32.3798L3.2453 37.3001C3.24119 37.8968 3.46301 38.1176 4.05353 38.1196C6.26051 38.1247 8.46646 38.133 10.6734 38.134L12.4018 38.136L15.7293 38.1145C15.5403 37.7612 13.4997 35.3878 13.0776 33.8946C12.9338 33.7919 12.4953 32.6448 12.444 32.3788L12.333 32.1477L12.2735 31.9156C11.8391 31.8273 10.6395 31.8766 10.1271 31.8766C9.42668 31.8766 8.72731 31.8838 8.02794 31.8838C6.59428 31.8838 5.14726 31.8571 3.71565 31.8889L3.64376 31.8951L3.30999 32.1785Z" fill="#8491A4"/>
<path fill-rule="evenodd" clip-rule="evenodd" d="M3.57597 15.4007C3.43117 15.6 3.35106 15.5486 3.26274 15.867C3.20215 16.7522 3.24837 19.1297 3.24939 20.2748C3.24939 20.5007 3.23501 20.7965 3.25761 21.0142C3.28739 21.2997 3.3942 21.3634 3.50922 21.5164L3.53592 21.5215C3.91077 21.6869 4.84737 21.6304 5.328 21.6099L7.0944 21.6088L8.88135 21.6129L10.6539 21.6078L11.9109 21.6068C12.0804 20.9916 12.2355 20.2851 12.5045 19.7644C12.6586 19.0999 14.0912 16.4175 14.3818 16.2049C14.4753 15.9717 14.7947 15.5722 14.9323 15.3627L14.2032 15.3556L12.4275 15.3627L10.6549 15.3607L8.87313 15.3586L7.10775 15.3556L5.32184 15.3648C4.74673 15.3443 4.12335 15.3227 3.57597 15.4028V15.4007Z" fill="#8491A4"/>
<path fill-rule="evenodd" clip-rule="evenodd" d="M3.27201 29.3215C3.4086 30.0599 4.12132 29.8771 4.90799 29.8771C5.6279 29.8771 6.35398 29.8473 7.07594 29.8668L11.7076 29.8575L11.5053 28.5584C11.4201 28.2195 11.3266 27.3764 11.3821 27.0272C11.2855 26.8064 11.2773 25.1355 11.4026 24.9558C11.3523 24.546 11.4488 24.1219 11.4837 23.71C11.4416 23.5683 11.3759 23.6186 11.1561 23.6186L4.56703 23.6228C3.95187 23.6217 3.39011 23.5324 3.26585 24.0849C3.19191 24.4156 3.25147 25.4313 3.25353 25.8338C3.25969 26.9245 3.1724 28.2616 3.27201 29.3194V29.3215Z" fill="#8491A4"/>
<path fill-rule="evenodd" clip-rule="evenodd" d="M28.5152 23.3177L28.5203 25.0461C28.5223 25.8082 28.2286 26.449 28.7411 26.8629C31.7686 29.3112 34.8157 31.7718 37.872 34.1801C38.2951 34.5139 38.5364 34.5354 39.0663 34.2972C39.1495 34.2602 39.3036 34.0836 39.3724 33.948C39.4853 33.7241 39.4915 33.4335 39.397 33.1665C39.2789 32.8307 39.1629 32.804 38.9749 32.6047C38.8681 32.4907 38.5734 32.2771 38.4286 32.1693C37.6953 31.625 30.3863 25.9704 30.3863 25.7958C30.3894 24.165 30.5732 16.781 30.262 16.1874C30.1912 16.0529 30.2199 16.0909 30.1552 16.0395C29.9488 15.8773 29.69 15.6873 29.2823 15.7633C28.9516 15.8249 28.7164 16.0221 28.6179 16.2901C28.4792 16.667 28.5131 22.528 28.5162 23.3167L28.5152 23.3177Z" fill="#8491A4"/>
<path fill-rule="evenodd" clip-rule="evenodd" d="M8.88021 0.144986L8.75287 0.222009C8.63271 0.534211 8.55877 0.583506 8.55979 1.03743C8.56082 1.33936 8.55363 1.64951 8.5639 1.94836L8.56185 2.0182L8.55774 2.7227L8.8227 2.7453C9.938 2.76892 11.0533 2.72065 12.1707 2.74119C12.8135 2.75249 14.9435 2.84594 15.4344 2.72989L15.4323 2.00485C15.4703 1.74707 15.4477 1.3219 15.4477 1.03846C15.4488 0.592749 15.3861 0.513672 15.2598 0.206605C14.7977 0.0679626 14.9271 0.0063438 14.2226 0.0227755L12.4449 0.0238024L12.3771 0.0227755H10.7082L10.6569 0.0217485C10.1003 0.0176406 9.35262 -0.0727336 8.88021 0.148067V0.144986Z" fill="#8491A4"/>
</svg>
