<svg width="34" height="32" viewBox="0 0 34 32" fill="none" xmlns="http://www.w3.org/2000/svg">
<path fill-rule="evenodd" clip-rule="evenodd" d="M32.3266 21.0951C32.2456 21.51 32.1547 21.9235 32.0456 22.3324C32.0032 22.4907 31.9858 22.3574 31.9699 22.4786C31.9222 22.8458 31.3005 24.2286 31.115 24.5815C30.8227 25.1366 30.2297 25.94 29.9026 26.3315C29.8314 26.4163 29.446 26.8752 29.3574 26.9661C29.1643 27.1637 28.9295 27.2909 28.7402 27.4894C28.5698 27.6673 26.8917 28.785 26.6714 28.9122C26.4268 29.0538 25.5665 29.4643 25.2046 29.5976C24.7222 29.7748 24.0611 29.9307 23.5424 30.0209C23.2213 30.0769 22.8472 30.0822 22.5209 30.1216C22.3043 30.1481 20.9844 30.1473 20.7716 30.1231C20.4899 30.0913 19.9621 30.0474 19.6849 30.0027C19.0034 29.8921 17.0436 29.2636 16.5832 28.9175C16.4492 28.8168 15.86 28.5041 15.7229 28.4208C15.4829 28.2746 14.8105 27.8097 14.6416 27.6408C14.5401 27.5386 14.4924 27.5242 14.3977 27.4386C14.2062 27.266 14.0312 27.0751 13.8518 26.8896C13.5754 26.6056 13.6723 26.7397 13.3285 26.2876C13.2861 26.2323 13.2959 26.3027 13.1558 26.1225C12.3865 25.1328 11.4884 23.5789 11.2233 22.39C11.1272 21.9599 10.9886 21.5381 10.9151 21.1034C10.8561 20.7551 10.8356 20.334 10.8212 19.9842C10.8114 19.7411 10.8227 18.406 10.8689 18.1645C10.9136 17.929 10.9583 17.4405 10.9992 17.2073C11.1128 16.5689 11.6383 14.9476 11.9329 14.4668C12.0699 14.2434 12.1585 14.0321 12.2827 13.8216C12.3433 13.7186 12.5887 13.3582 12.6561 13.2741C12.7689 13.134 13.0445 12.7524 13.1445 12.6221C13.2588 12.4737 13.5322 12.145 13.6617 11.9883C13.8192 11.7974 14.213 11.4514 14.403 11.2855C14.5091 11.1932 14.6113 11.0493 14.7499 10.9342C14.868 10.8365 15.0384 10.7274 15.158 10.6388C15.3345 10.5078 15.4821 10.37 15.698 10.2375C15.9774 10.0664 16.643 9.70287 16.9603 9.55597C17.2238 9.43405 17.8637 9.12054 18.2317 9.01225C18.6853 8.87898 19.1571 8.75554 19.6213 8.65634C19.9166 8.59349 20.3422 8.60031 20.6315 8.55184C20.9753 8.49429 21.837 8.46173 22.2399 8.4958C22.6746 8.53291 23.11 8.5791 23.5409 8.64877C23.871 8.70178 24.6662 8.91684 24.9055 9.02361C25.0857 9.10388 25.5423 9.21899 25.7271 9.2985C25.8679 9.35908 26.0542 9.49008 26.1943 9.53098C26.5684 9.63851 28.2321 10.6638 28.5721 10.9978C29.1067 11.5233 29.6489 12.0443 30.1328 12.6168C30.5796 13.1454 31.0158 13.9064 31.3611 14.5705C31.6473 15.1211 32.1183 16.5227 32.2501 17.1732C32.3092 17.464 32.3554 17.9668 32.3902 18.2546C32.4144 18.4515 32.444 19.7206 32.4296 19.913C32.4031 20.2689 32.3947 20.7422 32.3258 21.0935L32.3266 21.0951ZM18.3718 7.36219C18.2264 7.40384 17.2943 7.734 17.0224 7.85214C16.5347 8.06493 16.0705 8.23228 15.6533 8.48975C15.2406 8.74494 14.7877 8.94107 14.4038 9.23867C14.2766 9.33712 14.1683 9.45979 14.0426 9.55824C13.9245 9.65138 13.8124 9.73998 13.6905 9.83388C13.5875 9.91263 13.6049 9.92172 13.5201 9.99669C13.4572 10.0527 13.4133 10.0656 13.3489 10.1194C13.2089 10.2367 13.3255 10.1307 13.0271 10.4238C12.5962 10.8463 12.2396 11.3386 11.8284 11.78C11.7178 11.8989 11.7466 11.8293 11.6375 11.9709C11.5467 12.089 11.3316 12.4351 11.2294 12.6001C11.1052 12.8001 10.9893 13.0151 10.853 13.2302C10.4441 13.8784 10.3525 14.204 10.1965 14.5607C9.13026 17.0006 8.92807 20.1159 9.72319 22.7338C9.82845 23.0798 9.93901 23.4562 10.0579 23.7758C10.0935 23.8712 10.5456 24.8685 10.6524 25.0669C10.8947 25.5175 11.1203 25.8787 11.3642 26.2709C11.3914 26.3156 11.4263 26.355 11.4573 26.3974C11.4846 26.436 11.5065 26.4678 11.5421 26.5208C11.7905 26.8866 12.3138 27.4416 12.4781 27.6779C12.784 28.1171 13.4012 28.5359 13.7647 28.9024C13.9949 29.1349 14.3894 29.3749 14.7075 29.59C16.0001 30.4616 17.6434 31.2196 19.457 31.5142C19.4918 31.5202 19.5244 31.5377 19.5592 31.5437C19.6531 31.5596 19.7614 31.5997 19.8364 31.6172C20.1681 31.6952 20.5156 31.683 20.8556 31.6944C21.3145 31.7095 21.7734 31.7111 22.2323 31.6967C22.6254 31.6846 23.0237 31.6929 23.4091 31.6149C23.5326 31.5899 23.6499 31.5278 23.8059 31.5081C24.4072 31.4294 25.2243 31.1969 25.7475 31.0144C26.3496 30.8046 26.9023 30.5017 27.4688 30.2541C27.49 30.245 27.5097 30.2306 27.5271 30.2155C27.6255 30.1269 27.9989 29.9315 28.1412 29.8475C28.348 29.7248 28.5562 29.5499 28.7803 29.4484C28.8288 29.4264 29.0234 29.2598 29.112 29.1871C29.2052 29.1106 29.2241 29.1053 29.3036 29.0425C29.3801 28.9819 29.3922 28.9539 29.452 28.9107C29.552 28.838 29.5346 28.8305 29.6111 28.7646C29.6694 28.7146 29.6974 28.7048 29.758 28.6608C29.9586 28.5162 29.8481 28.517 30.0737 28.4026C30.1124 28.3829 30.0594 28.3996 30.1154 28.3435C30.3683 28.0929 30.6621 27.8801 30.8855 27.6022C30.9703 27.4962 30.9984 27.397 31.1036 27.2879C31.2248 27.1622 31.2195 27.1395 31.3565 26.982C31.4224 26.907 31.8094 26.4103 31.8548 26.33C32.3304 25.4932 32.8165 24.6564 33.1944 23.7712C33.4663 23.1351 33.5586 22.6262 33.7298 21.8856C33.9017 21.142 33.9585 20.5498 33.9941 19.8017C34.0145 19.3738 33.9759 18.9452 33.9706 18.5166C33.9698 18.4681 33.9842 18.4182 33.9759 18.3704C33.9327 18.1115 33.8964 17.6382 33.8396 17.3224C33.7851 17.0187 33.7018 16.6621 33.6268 16.3561C33.4526 15.6481 33.2906 15.1809 33.0589 14.5683C33.0036 14.4221 32.787 13.9026 32.7151 13.7663C32.6356 13.6156 32.2812 13.0553 32.1539 12.8538C32.0562 12.6986 31.9813 12.5706 31.8783 12.4176C31.8177 12.3275 31.6276 12.0837 31.5739 12.0027C31.4875 11.8724 31.4868 11.7505 31.3505 11.6445C31.2604 11.5748 31.3338 11.6672 31.2399 11.5551C30.9976 11.2674 30.8007 10.9372 30.5198 10.6866C30.3236 10.5116 30.2479 10.3799 30.0775 10.2383C29.9435 10.1269 29.7822 10.03 29.652 9.91945C29.4233 9.72408 29.1787 9.54839 28.9447 9.35984C28.8992 9.32273 28.8334 9.25458 28.7879 9.22353C28.3843 8.95092 27.983 8.72223 27.5278 8.44204C27.0871 8.17018 26.6752 8.02025 26.1671 7.80821C24.364 7.05474 22.2823 6.79652 20.2862 7.01764C19.7054 7.082 18.5861 7.29934 18.3696 7.36143L18.3718 7.36219Z" fill="#0076A4"/>
<path fill-rule="evenodd" clip-rule="evenodd" d="M1.48423 2.8338C0.959446 2.93906 0.630039 3.19956 0.393017 3.48277C0.106773 3.82505 0 4.25745 0 4.82388L0.00832984 27.2917C0.00832984 28.5654 -0.0522508 29.2591 0.315019 29.7566C0.39756 29.8687 0.46117 29.9656 0.536139 30.0391C0.733783 30.2337 0.998823 30.4207 1.27522 30.4858C1.75608 30.5994 2.13622 30.5502 2.6398 30.557L3.88398 30.5547L3.91502 30.5555L5.25916 30.5532C7.42719 30.5555 9.59522 30.5517 11.7632 30.5547L13.0756 30.5525H13.1271L14.3531 30.5547L14.3705 30.5563L14.5015 30.5373L14.3871 30.451C14.1592 30.3298 13.976 30.1852 13.7912 30.0466C12.438 29.0304 12.6765 29.1962 11.6928 29.1879C9.07649 29.1659 6.44578 29.1902 3.82718 29.1871C2.03475 29.1849 1.36685 29.2454 1.38805 28.3882C1.38275 28.0588 1.40017 27.968 1.38503 27.6385L1.3873 26.3391L1.38957 25.0071L1.38124 23.7122L1.38048 22.4248L1.38427 21.0883L1.38578 19.8024L1.38654 18.4651L1.382 17.1861L1.38351 15.8586L1.38503 14.5758V13.231L1.37972 11.958L1.38275 10.6245L1.38503 9.34698V7.9983L1.38124 6.72838L1.38351 5.40015C1.38578 4.33015 1.27295 4.16961 2.15213 4.16961H15.0808C15.7616 4.16961 16.0857 4.14083 16.2167 4.29758C16.3522 4.45888 16.2954 4.8004 16.3159 5.53494L16.331 6.34975L16.3409 7.14942C16.7422 6.99569 17.1307 6.84424 17.5336 6.69355L17.6865 6.636C17.6782 5.86662 17.7819 4.80343 17.6335 4.08252C17.61 3.96969 17.4813 3.73115 17.3715 3.57819C17.2269 3.37752 17.1171 3.26847 17.0035 3.16245C16.874 3.04205 16.7468 2.99131 16.5673 2.91483C16.2273 2.76944 16.0046 2.78231 15.6518 2.78307L14.4288 2.78383L14.3697 2.78307L13.0915 2.7861L13.0294 2.78534L11.8155 2.78761L6.51242 2.77928L5.24628 2.78307L5.1857 2.78383L3.96273 2.78307H3.90669L2.63071 2.7861L2.56786 2.78534C2.31115 2.78231 1.69929 2.78837 1.47968 2.83229L1.48423 2.8338Z" fill="#0076A4"/>
<path fill-rule="evenodd" clip-rule="evenodd" d="M2.62165 5.28504L2.44597 5.45012L2.40129 5.61521C2.38084 6.34066 2.38463 7.11003 2.39372 7.837C2.39826 8.21412 2.40432 8.58896 2.40432 8.96683C2.40432 9.70667 2.37554 9.46359 2.63983 9.82405C3.02906 9.83313 3.49629 9.85131 3.91884 9.84298H5.24782L6.53668 9.84449L7.86869 9.84071L9.15527 9.83995L10.4737 9.84071L11.7496 9.84298C11.8844 9.84601 12.157 9.86115 12.2805 9.84525C12.463 9.82177 12.4607 9.74453 12.5955 9.62034C12.6917 9.53174 12.7795 9.48177 12.8711 9.39165C13.2119 9.05391 14.0244 8.40192 14.3947 8.25425C14.5174 8.02101 15.149 7.89152 15.311 7.628C15.311 7.19182 15.358 5.75606 15.2421 5.45088C15.0324 5.24491 15.043 5.23052 14.6658 5.23052C12.8658 5.23128 10.8424 5.20023 9.09999 5.23809C7.00769 5.28353 4.88964 5.20402 2.79204 5.24264L2.62165 5.2858V5.28504Z" fill="#0076A4"/>
<path fill-rule="evenodd" clip-rule="evenodd" d="M2.44066 23.7273L2.39901 23.8757L2.39296 27.5037C2.38993 27.9437 2.55349 28.1065 2.98892 28.108C4.61626 28.1118 6.24285 28.1179 7.8702 28.1186L9.14467 28.1202L11.5982 28.1043C11.4588 27.8438 9.95418 26.0937 9.64294 24.9927C9.53693 24.917 9.21358 24.0711 9.17572 23.875L9.09393 23.7046L9.05001 23.5334C8.72969 23.4683 7.84521 23.5047 7.46734 23.5047C6.95089 23.5047 6.4352 23.51 5.91951 23.51C4.86237 23.51 3.7954 23.4903 2.73978 23.5138L2.68677 23.5183L2.44066 23.7273Z" fill="#0076A4"/>
<path fill-rule="evenodd" clip-rule="evenodd" d="M2.63676 11.356C2.52999 11.5029 2.47092 11.465 2.4058 11.6998C2.36112 12.3525 2.3952 14.1056 2.39596 14.9499C2.39596 15.1165 2.38535 15.3346 2.40201 15.4951C2.42397 15.7057 2.50273 15.7526 2.58754 15.8654L2.60723 15.8692C2.88363 15.9912 3.57425 15.9495 3.92865 15.9344L5.23113 15.9336L6.54876 15.9366L7.85579 15.9328L8.78267 15.9321C8.90762 15.4785 9.02196 14.9575 9.22037 14.5736C9.33395 14.0836 10.3903 12.1057 10.6046 11.9489C10.6735 11.777 10.909 11.4824 11.0105 11.328L10.4729 11.3227L9.16357 11.328L7.85654 11.3264L6.5427 11.3249L5.24097 11.3227L3.9241 11.3295C3.50004 11.3143 3.04038 11.2984 2.63676 11.3575V11.356Z" fill="#0076A4"/>
<path fill-rule="evenodd" clip-rule="evenodd" d="M2.41263 21.6206C2.51335 22.1651 3.03888 22.0303 3.61894 22.0303C4.14978 22.0303 4.68516 22.0083 5.21751 22.0227L8.63275 22.0159L8.48357 21.058C8.42072 20.8081 8.35181 20.1864 8.3927 19.9289C8.32152 19.7661 8.31546 18.534 8.40784 18.4015C8.37074 18.0994 8.44192 17.7866 8.46767 17.4829C8.43662 17.3784 8.38815 17.4155 8.2261 17.4155L3.36753 17.4186C2.91394 17.4178 2.49972 17.3519 2.40809 17.7593C2.35356 18.0032 2.39749 18.7521 2.399 19.049C2.40354 19.8532 2.33918 20.8391 2.41263 21.6191V21.6206Z" fill="#0076A4"/>
<path fill-rule="evenodd" clip-rule="evenodd" d="M21.026 17.1937L21.0298 18.4681C21.0314 19.03 20.8148 19.5026 21.1926 19.8077C23.425 21.613 25.6718 23.4274 27.9254 25.2032C28.2374 25.4493 28.4154 25.4652 28.8061 25.2895C28.8675 25.2623 28.981 25.132 29.0318 25.0321C29.1151 24.867 29.1196 24.6527 29.05 24.4558C28.9629 24.2082 28.8773 24.1885 28.7387 24.0416C28.66 23.9575 28.4426 23.8 28.3359 23.7205C27.7952 23.3191 22.4058 19.1497 22.4058 19.0209C22.408 17.8184 22.5436 12.3737 22.3141 11.936C22.2619 11.8368 22.2831 11.8649 22.2354 11.827C22.0832 11.7073 21.8924 11.5673 21.5917 11.6233C21.3479 11.6687 21.1745 11.8141 21.1018 12.0118C20.9995 12.2897 21.0245 16.6114 21.0268 17.1929L21.026 17.1937Z" fill="#0076A4"/>
<path fill-rule="evenodd" clip-rule="evenodd" d="M6.54802 0.106908L6.45412 0.163702C6.36552 0.393908 6.311 0.430257 6.31176 0.764965C6.31251 0.987598 6.30721 1.21629 6.31479 1.43665L6.31327 1.48815L6.31024 2.00763L6.50561 2.02428C7.328 2.0417 8.15038 2.00611 8.97428 2.02126C9.44832 2.02959 11.0189 2.0985 11.3808 2.01293L11.3793 1.4783C11.4073 1.28823 11.3907 0.974725 11.3907 0.765722C11.3914 0.437072 11.3453 0.378763 11.2521 0.152343C10.9113 0.0501132 11.0068 0.00467769 10.4873 0.0167938L9.17646 0.0175511L9.12648 0.0167938H7.89594L7.85808 0.0160366C7.44764 0.0130075 6.89636 -0.0536312 6.54802 0.109179V0.106908Z" fill="#0076A4"/>
</svg>
