<svg width="36" height="34" viewBox="0 0 36 34" fill="none" xmlns="http://www.w3.org/2000/svg">
<path fill-rule="evenodd" clip-rule="evenodd" d="M1.48408 2.75117C0.95841 2.85284 0.629771 3.10594 0.392586 3.38066C0.106328 3.71308 -0.000739684 4.13274 3.84291e-06 4.6822L0.00818264 26.4881C0.00818264 27.7247 -0.0527866 28.3975 0.315259 28.8806C0.397791 28.9895 0.461734 29.0832 0.536087 29.1546C0.733865 29.3435 0.999304 29.5252 1.2759 29.588C1.75696 29.6983 2.13541 29.6694 2.63953 29.6759H3.91616H5.26492H8.15129V28.3283C8.15129 28.3268 6.4501 28.3304 3.82991 28.3275C2.03653 28.3254 1.36809 28.3845 1.38891 27.5517C1.38371 27.2315 1.40081 27.1435 1.38594 26.8241L1.38817 25.563L1.3904 24.2701L1.38222 23.0132L1.38148 21.7636L1.3852 20.4664L1.38668 19.2183L1.38743 17.9203L1.38296 16.6794L1.38445 15.3908L1.38594 14.1462V12.8411L1.38073 11.6052L1.38371 10.3116L1.38594 9.07135V7.76261L1.38222 6.5303L1.3852 5.24103C1.38743 4.20268 1.27441 4.04693 2.15475 4.04693H15.0929C15.7739 4.04693 16.0981 4.01953 16.2297 4.17096C16.365 4.32743 16.3346 4.6584 16.3546 5.37154V6.63918H17.7012C17.7145 5.89287 17.7755 4.67859 17.6484 3.96257C17.6253 3.85297 17.4959 3.6215 17.3866 3.47368C17.2424 3.27899 17.1324 3.173 17.0179 3.06988C16.8885 2.95307 16.7606 2.90404 16.5814 2.82977C16.2409 2.68844 16.0186 2.70142 15.6654 2.70214L14.4415 2.70286L14.3821 2.70214L13.1032 2.70502L13.0415 2.7043L11.8265 2.70646L6.51999 2.69853L5.25302 2.70214L5.1928 2.70286L3.96895 2.70214H3.91319L2.63655 2.70502L2.5741 2.7043C2.31758 2.7007 1.70491 2.70719 1.48483 2.74973L1.48408 2.75117Z" fill="#B81668"/>
<path fill-rule="evenodd" clip-rule="evenodd" d="M2.62171 5.1299L2.44624 5.28998L2.40089 5.45006C2.38007 6.15382 2.38453 6.90085 2.39345 7.60678C2.39791 7.97236 2.40386 8.33651 2.40386 8.70281C2.40386 9.421 2.37486 9.18521 2.63881 9.53492C3.02842 9.54358 3.4961 9.5616 3.91917 9.55295H5.24934L6.53936 9.55439L7.8725 9.55079H8.14984V9.35033C8.14984 8.33578 9.97668 6.62757 12.2415 6.62757C12.9069 6.62757 14.4981 6.64127 15.3301 6.64127C15.3301 6.218 15.368 5.58706 15.2513 5.2907C15.0416 5.09097 15.052 5.07655 14.6743 5.07727C12.8727 5.07799 10.8481 5.0477 9.10453 5.08448C7.01075 5.12846 4.89096 5.05131 2.79198 5.0888L2.62171 5.13063V5.1299Z" fill="#B81668"/>
<path fill-rule="evenodd" clip-rule="evenodd" d="M2.44094 23.0283L2.3993 23.1718L2.39335 26.6928C2.39038 27.1204 2.55395 27.2783 2.98966 27.279C4.61873 27.2826 6.24631 27.2884 7.87463 27.2891L8.14974 27.2754V22.8401C7.59358 22.8401 6.51695 22.817 5.92213 22.817C4.86483 22.817 3.79639 22.7983 2.73983 22.8206L2.6863 22.825L2.44019 23.0283H2.44094Z" fill="#B81668"/>
<path fill-rule="evenodd" clip-rule="evenodd" d="M2.63719 11.0218C2.53012 11.1646 2.47138 11.1271 2.40595 11.3549C2.36134 11.9888 2.39554 13.6898 2.39628 14.5089C2.39628 14.6704 2.38513 14.8824 2.40223 15.0382C2.42379 15.2422 2.50335 15.2877 2.58811 15.3973L2.60745 15.4009C2.88404 15.5191 3.57552 15.4787 3.93018 15.4636L5.23433 15.4629L6.5526 15.4658L7.86047 15.4621L8.15119 15.4614V10.9922L7.86121 10.9908L6.54665 10.9893L5.24399 10.9872L3.92646 10.9937C3.50265 10.9793 3.04241 10.9634 2.63867 11.0204L2.63719 11.0218Z" fill="#B81668"/>
<path fill-rule="evenodd" clip-rule="evenodd" d="M2.41285 20.9834C2.51397 21.5119 3.03964 21.3814 3.61959 21.3814C4.15121 21.3814 4.68655 21.3605 5.21892 21.3742L8.15065 21.3677V16.9029L3.36902 16.9057C2.91473 16.905 2.50058 16.8409 2.40913 17.2367C2.35411 17.4732 2.39798 18.2001 2.40021 18.4885C2.40467 19.2687 2.33998 20.2256 2.41359 20.9834H2.41285Z" fill="#B81668"/>
<path fill-rule="evenodd" clip-rule="evenodd" d="M6.55116 0.10407L6.45748 0.158871C6.369 0.382403 6.31398 0.417014 6.31472 0.742217C6.31546 0.958538 6.31026 1.18063 6.31769 1.39406L6.31621 1.44454L6.31323 1.94857L6.50878 1.96443C7.33187 1.98174 8.15495 1.94713 8.97878 1.96155C9.45315 1.96948 11.025 2.03582 11.3871 1.95362L11.3856 1.43517C11.4131 1.25057 11.3967 0.94628 11.3967 0.743659C11.3975 0.424225 11.3514 0.367982 11.2577 0.148055C10.9172 0.0485473 11.0123 0.00528307 10.4926 0.0160991L9.18027 0.0168202L9.13046 0.0160991H7.89918L7.86126 0.0153781C7.45009 0.0124938 6.89913 -0.0516815 6.55042 0.105512L6.55116 0.10407Z" fill="#B81668"/>
<path d="M32.1509 8.95721H13.3568C11.7832 8.95721 10.5076 10.1943 10.5076 11.7204V29.9469C10.5076 31.4729 11.7832 32.71 13.3568 32.71H32.1509C33.7245 32.71 35.0001 31.4729 35.0001 29.9469V11.7204C35.0001 10.1943 33.7245 8.95721 32.1509 8.95721Z" stroke="#B81668" stroke-width="2" stroke-miterlimit="22.9256"/>
<path d="M22.7542 8.95721V32.71" stroke="#B81668" stroke-width="2" stroke-miterlimit="22.9256"/>
<path d="M10.5076 20.8333H35.0001" stroke="#B81668" stroke-width="2" stroke-miterlimit="22.9256"/>
<path fill-rule="evenodd" clip-rule="evenodd" d="M26.4175 14.777C26.4175 15.1894 26.7238 15.4375 27.1261 15.4375H30.6697C31.556 15.4375 31.7694 14.1547 30.4482 14.1547H27.3469C27.0792 14.1547 26.8755 14.1879 26.7052 14.2917C26.5394 14.3926 26.4167 14.5484 26.4167 14.777H26.4175Z" fill="#B81668"/>
<path fill-rule="evenodd" clip-rule="evenodd" d="M13.9336 14.777C13.9336 15.1894 14.2399 15.4375 14.6422 15.4375H18.1858C19.0721 15.4375 19.2855 14.1547 17.9643 14.1547H14.863C14.5953 14.1547 14.3916 14.1879 14.2214 14.2917C14.0555 14.3926 13.9329 14.5484 13.9329 14.777H13.9336Z" fill="#B81668"/>
<path fill-rule="evenodd" clip-rule="evenodd" d="M26.4175 25.3046C26.4175 25.7171 26.7238 25.9651 27.1261 25.9651H30.6697C31.556 25.9651 31.7694 24.6823 30.4482 24.6823H27.3469C27.0792 24.6823 26.8755 24.7155 26.7052 24.8193C26.5394 24.9203 26.4167 25.076 26.4167 25.3046H26.4175Z" fill="#B81668"/>
<path fill-rule="evenodd" clip-rule="evenodd" d="M26.4175 28.2654C26.4175 28.6778 26.7238 28.9259 27.1261 28.9259H30.6697C31.556 28.9259 31.7694 27.6431 30.4482 27.6431H27.3469C27.0792 27.6431 26.8755 27.6763 26.7052 27.7801C26.5394 27.881 26.4167 28.0368 26.4167 28.2654H26.4175Z" fill="#B81668"/>
<path fill-rule="evenodd" clip-rule="evenodd" d="M16.3983 17.2063C16.8236 17.2063 17.0793 16.9093 17.0793 16.5192V13.0825C17.0793 12.223 15.7566 12.0161 15.7566 13.2974V16.305C15.7566 16.5646 15.7908 16.7622 15.8979 16.9273C16.002 17.0881 16.1626 17.2071 16.3983 17.2071V17.2063Z" fill="#B81668"/>
<path fill-rule="evenodd" clip-rule="evenodd" d="M14.6476 28.61C14.948 28.9013 15.3458 28.8674 15.6305 28.5913L18.1362 26.1612C18.763 25.5534 17.9786 24.5006 17.0447 25.4063L14.8521 27.5327C14.6625 27.7166 14.5428 27.8796 14.4981 28.0692C14.455 28.2545 14.481 28.4492 14.6476 28.61Z" fill="#B81668"/>
<path fill-rule="evenodd" clip-rule="evenodd" d="M18.1615 28.6374C18.4627 28.3454 18.427 27.9603 18.1422 27.6842L15.6365 25.2542C15.0097 24.6463 13.9242 25.407 14.858 26.3127L17.0507 28.4391C17.2403 28.623 17.4083 28.7391 17.6039 28.7824C17.795 28.8242 17.995 28.7989 18.1615 28.6374Z" fill="#B81668"/>
</svg>
