<svg width="47" height="43" viewBox="0 0 47 43" fill="none" xmlns="http://www.w3.org/2000/svg">
<path fill-rule="evenodd" clip-rule="evenodd" d="M43.8407 28.6087C43.7309 29.1715 43.6076 29.7323 43.4597 30.2868C43.4022 30.5015 43.3786 30.3207 43.357 30.485C43.2923 30.9831 42.4492 32.8584 42.1976 33.337C41.8012 34.0897 40.997 35.1794 40.5534 35.7103C40.4568 35.8253 39.9341 36.4477 39.814 36.5709C39.5521 36.839 39.2337 37.0115 38.977 37.2806C38.7459 37.5219 36.4701 39.0377 36.1713 39.2103C35.8395 39.4023 34.6729 39.9589 34.182 40.1397C33.5278 40.38 32.6313 40.5915 31.9278 40.7138C31.4923 40.7897 30.985 40.7969 30.5424 40.8503C30.2487 40.8863 28.4586 40.8853 28.1701 40.8524C27.788 40.8093 27.0722 40.7497 26.6963 40.6891C25.7721 40.5392 23.1142 39.6868 22.4898 39.2174C22.3081 39.0809 21.5091 38.6567 21.3232 38.5437C20.9976 38.3455 20.0857 37.715 19.8567 37.486C19.719 37.3473 19.6543 37.3278 19.526 37.2118C19.2661 36.9776 19.0289 36.7188 18.7855 36.4672C18.4107 36.0821 18.5421 36.2639 18.0759 35.6507C18.0184 35.5758 18.0317 35.6713 17.8417 35.4269C16.7983 34.0846 15.5803 31.9772 15.2209 30.3649C15.0904 29.7816 14.9025 29.2095 14.8029 28.62C14.7228 28.1476 14.6951 27.5766 14.6755 27.1022C14.6622 26.7725 14.6776 24.9619 14.7402 24.6343C14.8008 24.3149 14.8614 23.6525 14.9169 23.3362C15.0709 22.4705 15.7837 20.2717 16.1832 19.6196C16.369 19.3166 16.4892 19.0301 16.6576 18.7446C16.7398 18.6049 17.0725 18.1161 17.1639 18.0021C17.3169 17.8121 17.6908 17.2945 17.8263 17.1179C17.9814 16.9166 18.3521 16.4709 18.5277 16.2583C18.7414 15.9995 19.2754 15.5302 19.5332 15.3053C19.6769 15.18 19.8156 14.9848 20.0035 14.8287C20.1637 14.6963 20.3948 14.5484 20.5571 14.4282C20.7963 14.2505 20.9966 14.0636 21.2893 13.8839C21.6683 13.6518 22.571 13.1589 23.0013 12.9596C23.3587 12.7943 24.2265 12.3691 24.7256 12.2223C25.3407 12.0415 25.9805 11.8741 26.6101 11.7396C27.0106 11.6543 27.5878 11.6636 27.9801 11.5979C28.4463 11.5198 29.615 11.4756 30.1614 11.5219C30.7509 11.5722 31.3414 11.6348 31.9257 11.7293C32.3735 11.8012 33.4518 12.0929 33.7763 12.2377C34.0208 12.3465 34.64 12.5026 34.8906 12.6105C35.0816 12.6926 35.3343 12.8703 35.5243 12.9257C36.0316 13.0716 38.2879 14.4621 38.749 14.915C39.474 15.6277 40.2093 16.3343 40.8656 17.1107C41.4715 17.8275 42.063 18.8596 42.5313 19.7603C42.9195 20.5069 43.5583 22.4078 43.737 23.29C43.8171 23.6844 43.8798 24.3663 43.927 24.7565C43.9599 25.0236 43.9999 26.7448 43.9804 27.0056C43.9445 27.4883 43.9332 28.1302 43.8397 28.6067L43.8407 28.6087ZM24.9156 9.98447C24.7184 10.041 23.4542 10.4887 23.0855 10.6489C22.4241 10.9375 21.7946 11.1645 21.2287 11.5136C20.669 11.8597 20.0549 12.1257 19.5342 12.5293C19.3617 12.6628 19.2148 12.8292 19.0443 12.9627C18.8841 13.089 18.7321 13.2092 18.5668 13.3365C18.4271 13.4433 18.4507 13.4557 18.3357 13.5573C18.2505 13.6333 18.1909 13.6508 18.1036 13.7237C17.9136 13.8829 18.0718 13.7391 17.6671 14.1366C17.0828 14.7096 16.5991 15.3771 16.0414 15.9759C15.8915 16.1371 15.9305 16.0426 15.7826 16.2347C15.6594 16.3949 15.3677 16.8642 15.2291 17.0881C15.0607 17.3592 14.9035 17.6509 14.7187 17.9425C14.1641 18.8216 14.0398 19.2632 13.8283 19.7469C12.3823 23.0559 12.1081 27.2809 13.1864 30.8311C13.3292 31.3005 13.4791 31.8109 13.6404 32.2443C13.6886 32.3737 14.3017 33.7262 14.4465 33.9953C14.7752 34.6063 15.0812 35.0962 15.4119 35.6282C15.4489 35.6887 15.4961 35.7421 15.5382 35.7997C15.5752 35.852 15.605 35.8952 15.6532 35.9671C15.9901 36.4631 16.6997 37.2159 16.9226 37.5363C17.3375 38.1319 18.1745 38.6998 18.6674 39.1969C18.9796 39.5122 19.5147 39.8377 19.946 40.1294C21.6991 41.3115 23.9276 42.3395 26.3872 42.739C26.4345 42.7472 26.4786 42.7708 26.5259 42.779C26.6532 42.8006 26.8001 42.855 26.9017 42.8786C27.3516 42.9844 27.8229 42.968 28.2841 42.9834C28.9064 43.0039 29.5288 43.006 30.1511 42.9865C30.6841 42.97 31.2243 42.9813 31.747 42.8755C31.9144 42.8417 32.0736 42.7574 32.2852 42.7307C33.1006 42.6239 34.2087 42.3087 34.9183 42.0611C35.7348 41.7767 36.4845 41.3659 37.2527 41.0301C37.2814 41.0177 37.3081 40.9982 37.3317 40.9777C37.4653 40.8575 37.9715 40.5926 38.1646 40.4786C38.445 40.3122 38.7274 40.075 39.0314 39.9374C39.0971 39.9076 39.3611 39.6816 39.4812 39.583C39.6075 39.4793 39.6332 39.4721 39.741 39.3869C39.8448 39.3047 39.8612 39.2667 39.9423 39.2082C40.0779 39.1096 40.0543 39.0993 40.158 39.01C40.2371 38.9422 40.2751 38.9289 40.3572 38.8693C40.6294 38.6731 40.4794 38.6742 40.7855 38.5191C40.8379 38.4924 40.766 38.515 40.842 38.439C41.185 38.0991 41.5834 37.8105 41.8864 37.4336C42.0014 37.2898 42.0394 37.1553 42.1822 37.0074C42.3465 36.8369 42.3393 36.8061 42.5252 36.5925C42.6145 36.4908 43.1393 35.8171 43.2009 35.7083C43.8459 34.5734 44.5052 33.4386 45.0177 32.2381C45.3863 31.3754 45.5116 30.6853 45.7437 29.6809C45.9769 28.6724 46.0539 27.8693 46.1021 26.8547C46.1299 26.2744 46.0775 25.6932 46.0703 25.1119C46.0693 25.0462 46.0888 24.9784 46.0775 24.9137C46.019 24.5624 45.9697 23.9206 45.8926 23.4923C45.8187 23.0805 45.7057 22.5968 45.6041 22.1819C45.3679 21.2217 45.1481 20.588 44.8338 19.7572C44.7589 19.559 44.4651 18.8545 44.3676 18.6696C44.2597 18.4653 43.7791 17.7053 43.6066 17.4321C43.4741 17.2216 43.3724 17.048 43.2328 16.8406C43.1506 16.7184 42.8928 16.3877 42.8199 16.2778C42.7028 16.1012 42.7018 15.9358 42.517 15.792C42.3948 15.6976 42.4944 15.8229 42.367 15.6709C42.0384 15.2806 41.7714 14.8328 41.3904 14.4929C41.1244 14.2557 41.0217 14.077 40.7906 13.8849C40.6088 13.734 40.3901 13.6025 40.2134 13.4526C39.9033 13.1876 39.5716 12.9494 39.2542 12.6936C39.1926 12.6433 39.1033 12.5509 39.0417 12.5088C38.4943 12.1391 37.95 11.8289 37.3328 11.4489C36.7351 11.0803 36.1764 10.8769 35.4873 10.5894C33.042 9.56752 30.2189 9.21732 27.5118 9.5172C26.7241 9.60449 25.2062 9.89923 24.9125 9.98345L24.9156 9.98447Z" fill="#535C69"/>
<path fill-rule="evenodd" clip-rule="evenodd" d="M2.01288 3.84314C1.30118 3.98589 0.854447 4.33917 0.533002 4.72326C0.144804 5.18745 0 5.77386 0 6.54204L0.0112968 37.0125C0.0112968 38.7399 -0.0708615 39.6806 0.427223 40.3553C0.539164 40.5073 0.62543 40.6388 0.727101 40.7384C0.995143 41.0023 1.35459 41.256 1.72943 41.3443C2.38157 41.4984 2.89711 41.4316 3.58005 41.4408L5.26738 41.4378L5.30948 41.4388L7.13237 41.4357C10.0726 41.4388 13.0129 41.4337 15.9531 41.4378L17.7329 41.4347H17.8027L19.4654 41.4378L19.489 41.4398L19.6667 41.4142L19.5116 41.2971C19.2025 41.1328 18.9539 40.9366 18.7033 40.7487C16.8681 39.3705 17.1916 39.5954 15.8576 39.5841C12.3094 39.5543 8.74165 39.5872 5.19035 39.583C2.75949 39.58 1.8537 39.6621 1.88245 38.4996C1.87526 38.0528 1.89889 37.9296 1.87835 37.4829L1.88143 35.7206L1.88451 33.9141L1.87321 32.158L1.87218 30.4121L1.87732 28.5995L1.87937 26.8557L1.8804 25.042L1.87424 23.3075L1.87629 21.5072L1.87835 19.7675V17.9436L1.87116 16.2172L1.87526 14.4087L1.87835 12.6762V10.8471L1.87321 9.12489L1.87629 7.32357C1.87937 5.87245 1.72635 5.65473 2.91868 5.65473H20.4523C21.3755 5.65473 21.8151 5.6157 21.9928 5.82829C22.1766 6.04704 22.0996 6.5102 22.1273 7.50637L22.1478 8.6114L22.1612 9.69589C22.7055 9.48742 23.2323 9.28202 23.7787 9.07765L23.9861 8.9996C23.9748 7.95619 24.1155 6.51431 23.9142 5.53663C23.8824 5.38361 23.7078 5.06011 23.5589 4.85266C23.3628 4.58051 23.2138 4.43262 23.0598 4.28885C22.8842 4.12556 22.7116 4.05675 22.4683 3.95302C22.0071 3.75584 21.7052 3.7733 21.2266 3.77433L19.5681 3.77536L19.488 3.77433L17.7544 3.77844L17.6702 3.77741L16.024 3.78049L8.83202 3.7692L7.11491 3.77433L7.03276 3.77536L5.37418 3.77433H5.29819L3.56773 3.77844L3.48249 3.77741C3.13434 3.7733 2.30454 3.78152 2.00672 3.84108L2.01288 3.84314Z" fill="#535C69"/>
<path fill-rule="evenodd" clip-rule="evenodd" d="M3.5554 7.16747L3.31714 7.39135L3.25655 7.61523C3.22882 8.59908 3.23396 9.64249 3.24628 10.6284C3.25244 11.1398 3.26066 11.6482 3.26066 12.1606C3.26066 13.164 3.22163 12.8343 3.58005 13.3232C4.10791 13.3355 4.74156 13.3602 5.31462 13.3489H7.11696L8.86488 13.3509L10.6713 13.3458L12.4162 13.3447L14.2041 13.3458L15.9346 13.3489C16.1174 13.353 16.4871 13.3735 16.6545 13.3519C16.902 13.3201 16.8989 13.2153 17.0817 13.0469C17.2122 12.9268 17.3313 12.859 17.4556 12.7368C17.9177 12.2787 19.0197 11.3945 19.5218 11.1943C19.6882 10.8779 20.5447 10.7023 20.7645 10.3449C20.7645 9.7534 20.8282 7.80625 20.671 7.39238C20.3866 7.11304 20.4009 7.09353 19.8895 7.09353C17.4484 7.09455 14.7043 7.05245 12.3412 7.10379C9.50366 7.16541 6.6312 7.05758 3.78647 7.10996L3.5554 7.1685V7.16747Z" fill="#0076A4"/>
<path fill-rule="evenodd" clip-rule="evenodd" d="M3.30998 32.1785L3.2535 32.3798L3.24528 37.3001C3.24117 37.8968 3.463 38.1176 4.05351 38.1196C6.26049 38.1247 8.46644 38.133 10.6734 38.134L12.4018 38.136L15.7292 38.1145C15.5403 37.7612 13.4997 35.3878 13.0776 33.8946C12.9338 33.7919 12.4953 32.6448 12.4439 32.3788L12.333 32.1477L12.2735 31.9156C11.839 31.8273 10.6395 31.8766 10.1271 31.8766C9.42667 31.8766 8.7273 31.8838 8.02792 31.8838C6.59426 31.8838 5.14725 31.8571 3.71564 31.8889L3.64375 31.8951L3.30998 32.1785Z" fill="#0076A4"/>
<path fill-rule="evenodd" clip-rule="evenodd" d="M3.57596 15.4008C3.43116 15.6 3.35105 15.5486 3.26273 15.867C3.20214 16.7523 3.24835 19.1297 3.24938 20.2748C3.24938 20.5007 3.235 20.7965 3.2576 21.0142C3.28738 21.2997 3.39418 21.3634 3.50921 21.5164L3.53591 21.5216C3.91076 21.6869 4.84736 21.6304 5.32799 21.6099L7.09439 21.6088L8.88134 21.613L10.6539 21.6078L11.9109 21.6068C12.0804 20.9916 12.2354 20.2851 12.5045 19.7644C12.6586 19.0999 14.0912 16.4175 14.3818 16.2049C14.4753 15.9718 14.7947 15.5723 14.9323 15.3628L14.2031 15.3556L12.4275 15.3628L10.6549 15.3607L8.87312 15.3586L7.10774 15.3556L5.32183 15.3648C4.74672 15.3443 4.12334 15.3227 3.57596 15.4028V15.4008Z" fill="#0076A4"/>
<path fill-rule="evenodd" clip-rule="evenodd" d="M3.27195 29.3215C3.40854 30.0599 4.12127 29.8771 4.90793 29.8771C5.62785 29.8771 6.35392 29.8473 7.07589 29.8668L11.7076 29.8575L11.5052 28.5584C11.42 28.2195 11.3266 27.3764 11.382 27.0272C11.2855 26.8064 11.2773 25.1355 11.4025 24.9558C11.3522 24.546 11.4488 24.1219 11.4837 23.71C11.4416 23.5683 11.3758 23.6186 11.1561 23.6186L4.56698 23.6228C3.95182 23.6217 3.39006 23.5324 3.26579 24.0849C3.19185 24.4156 3.25142 25.4313 3.25347 25.8338C3.25963 26.9245 3.17234 28.2616 3.27195 29.3194V29.3215Z" fill="#0076A4"/>
<path fill-rule="evenodd" clip-rule="evenodd" d="M28.5151 23.3178L28.5202 25.0462C28.5223 25.8082 28.2286 26.449 28.741 26.8629C31.7686 29.3112 34.8156 31.7719 37.8719 34.1801C38.295 34.5139 38.5364 34.5355 39.0663 34.2972C39.1495 34.2602 39.3035 34.0836 39.3723 33.948C39.4853 33.7241 39.4915 33.4335 39.397 33.1665C39.2789 32.8307 39.1628 32.804 38.9749 32.6047C38.8681 32.4907 38.5733 32.2771 38.4285 32.1693C37.6953 31.625 30.3863 25.9704 30.3863 25.7959C30.3893 24.165 30.5732 16.781 30.262 16.1874C30.1911 16.0529 30.2199 16.0909 30.1552 16.0396C29.9488 15.8773 29.69 15.6873 29.2823 15.7633C28.9516 15.8249 28.7164 16.0221 28.6178 16.2901C28.4792 16.667 28.513 22.528 28.5161 23.3167L28.5151 23.3178Z" fill="#B81668"/>
<path fill-rule="evenodd" clip-rule="evenodd" d="M8.88026 0.144986L8.75292 0.222009C8.63276 0.534211 8.55882 0.583506 8.55984 1.03743C8.56087 1.33936 8.55368 1.64951 8.56395 1.94836L8.5619 2.0182L8.55779 2.7227L8.82275 2.7453C9.93805 2.76892 11.0533 2.72065 12.1707 2.74119C12.8136 2.75249 14.9435 2.84594 15.4344 2.72989L15.4324 2.00485C15.4704 1.74707 15.4478 1.3219 15.4478 1.03846C15.4488 0.592749 15.3862 0.513672 15.2599 0.206605C14.7977 0.0679626 14.9271 0.0063438 14.2226 0.0227755L12.4449 0.0238024L12.3771 0.0227755H10.7083L10.6569 0.0217485C10.1003 0.0176406 9.35267 -0.0727336 8.88026 0.148067V0.144986Z" fill="#535C69"/>
</svg>
