<svg width="18" height="18" viewBox="0 0 18 18" fill="none" xmlns="http://www.w3.org/2000/svg">
<path d="M2 11.7H4V16.2H16V1.8H4V6.3H2V0.9C2 0.661305 2.10536 0.432387 2.29289 0.263604C2.48043 0.0948211 2.73478 0 3 0H17C17.2652 0 17.5196 0.0948211 17.7071 0.263604C17.8946 0.432387 18 0.661305 18 0.9V17.1C18 17.3387 17.8946 17.5676 17.7071 17.7364C17.5196 17.9052 17.2652 18 17 18H3C2.73478 18 2.48043 17.9052 2.29289 17.7364C2.10536 17.5676 2 17.3387 2 17.1V11.7ZM8 8.1V5.4L13 9L8 12.6V9.9H0V8.1H8Z" fill="#EEF2F4"/>
</svg>
