<svg width="26" height="26" viewBox="0 0 26 26" fill="none" xmlns="http://www.w3.org/2000/svg">
<path d="M15.5955 1.18589e-06C17.9743 -0.00113454 20.2817 0.813529 22.1327 2.30812C23.9837 3.80271 25.2665 5.88689 25.7671 8.21304C26.2677 10.5392 25.9559 12.9667 24.8836 15.0907C23.8114 17.2147 22.0435 18.9068 19.8749 19.8848C19.1817 21.4177 18.1271 22.7596 16.8016 23.7953C15.4761 24.831 13.9193 25.5297 12.2645 25.8314C10.6098 26.1331 8.90661 26.0288 7.301 25.5276C5.6954 25.0263 4.23531 24.1429 3.04596 22.9533C1.85661 21.7637 0.973485 20.3032 0.472334 18.6972C-0.0288178 17.0912 -0.133044 15.3876 0.168595 13.7325C0.470233 12.0774 1.16873 10.5201 2.20419 9.1943C3.23965 7.86849 4.58116 6.81367 6.11368 6.12031C6.93803 4.29591 8.27105 2.7481 9.95286 1.66252C11.6347 0.576943 13.5939 -0.000308245 15.5955 1.18589e-06ZM11.6956 9.10181H9.09575V10.4021C8.25094 10.4 7.43852 10.7271 6.83071 11.314C6.2229 11.9009 5.86746 12.7015 5.83974 13.546C5.81201 14.3906 6.11418 15.2128 6.6822 15.8383C7.25022 16.4638 8.03943 16.8435 8.88256 16.8969L9.09575 16.9034H11.6956L11.8126 16.9138C11.9625 16.9409 12.0981 17.0198 12.1957 17.1367C12.2933 17.2537 12.3468 17.4011 12.3468 17.5535C12.3468 17.7058 12.2933 17.8533 12.1957 17.9702C12.0981 18.0872 11.9625 18.1661 11.8126 18.1932L11.6956 18.2036H6.49586V20.8041H9.09575V22.1044H11.6956V20.8041C12.5405 20.8062 13.3529 20.4791 13.9607 19.8922C14.5685 19.3053 14.9239 18.5047 14.9517 17.6602C14.9794 16.8156 14.6772 15.9934 14.1092 15.3679C13.5412 14.7424 12.752 14.3627 11.9088 14.3093L11.6956 14.3028H9.09575L8.97876 14.2924C8.8289 14.2653 8.69332 14.1864 8.5957 14.0695C8.49807 13.9525 8.44459 13.805 8.44459 13.6527C8.44459 13.5004 8.49807 13.3529 8.5957 13.236C8.69332 13.119 8.8289 13.0401 8.97876 13.013L9.09575 13.0026H14.2955V10.4021H11.6956V9.10181ZM15.5955 2.60052C14.494 2.59923 13.4048 2.83189 12.4 3.2831C11.3951 3.73432 10.4975 4.3938 9.76652 5.21794C11.2358 5.12872 12.7073 5.35251 14.0836 5.8745C15.46 6.39649 16.7099 7.20479 17.7507 8.24595C18.7915 9.28711 19.5995 10.5374 20.1212 11.9142C20.6429 13.2909 20.8664 14.7628 20.777 16.2324C21.959 15.1813 22.7935 13.7957 23.17 12.2592C23.5465 10.7228 23.4471 9.1082 22.8851 7.62955C22.323 6.15091 21.3249 4.8781 20.023 3.97994C18.7211 3.08178 17.177 2.6007 15.5955 2.60052Z" fill="#535C69"/>
</svg>
