<svg width="211" height="40" viewBox="0 0 211 40" fill="none" xmlns="http://www.w3.org/2000/svg">
<g filter="url(#filter0_dd_104_1211)">
<path fill-rule="evenodd" clip-rule="evenodd" d="M105.391 3.00093H109.915C111.074 3.00093 112.022 3.94839 112.022 5.1066V7.03415H113.742C114.322 7.03415 114.795 7.50787 114.795 8.08698V10.3493C114.795 10.9293 114.321 11.4021 113.742 11.4021H112.022V30.6077H114.466C115.046 30.6077 115.519 31.0814 115.519 31.6605V33.9229C115.519 34.5029 115.045 34.9757 114.466 34.9757H109.915H109.43H105.391C104.232 34.9757 103.285 34.0282 103.285 32.87V11.4012H101.564C100.984 11.4012 100.511 10.9275 100.511 10.3484V8.08605C100.511 7.50601 100.985 7.03321 101.564 7.03321H103.285V5.10566C103.285 3.94746 104.232 3 105.391 3V3.00093Z" fill="#EEF2F4"/>
<path fill-rule="evenodd" clip-rule="evenodd" d="M120.4 3.00093H124.923C126.083 3.00093 127.03 3.94839 127.03 5.1066V7.03415H128.751C129.331 7.03415 129.803 7.50787 129.803 8.08698V10.3493C129.803 10.9293 129.33 11.4021 128.751 11.4021H127.03V30.6077H129.703C130.283 30.6077 130.755 31.0814 130.755 31.6605V33.9229C130.755 34.5029 130.282 34.9757 129.703 34.9757H124.923H124.666H120.399C119.24 34.9757 118.292 34.0282 118.292 32.87V11.4012H116.572C115.992 11.4012 115.519 10.9275 115.519 10.3484V8.08605C115.519 7.50601 115.993 7.03321 116.572 7.03321H118.292V5.10566C118.292 3.94746 119.24 3 120.399 3L120.4 3.00093Z" fill="#EEF2F4"/>
<path fill-rule="evenodd" clip-rule="evenodd" d="M97.1428 30.6096H99.4564C100.036 30.6096 100.509 31.0833 100.509 31.6624V33.9248C100.509 34.5048 100.036 34.9776 99.4564 34.9776H95.3495H92.3496H82.4293C81.4426 34.9776 80.636 34.1719 80.636 33.1843V8.82744C80.636 7.83988 81.4426 7.03417 82.4293 7.03417H95.3486C96.3352 7.03417 97.1419 7.83988 97.1419 8.82744V30.6087L97.1428 30.6096ZM87.8053 15.772H90.3204C90.5125 15.772 90.6691 15.9287 90.6691 16.1208V25.891C90.6691 26.0831 90.5125 26.2397 90.3204 26.2397H87.8053C87.6132 26.2397 87.4565 26.0831 87.4565 25.891V16.1208C87.4565 15.9287 87.6132 15.772 87.8053 15.772Z" fill="#EEF2F4"/>
<path fill-rule="evenodd" clip-rule="evenodd" d="M141.85 15.7934V26.262H147.502C148.661 26.262 149.608 27.2095 149.608 28.3686V32.8924C149.608 34.0515 148.66 34.9989 147.502 34.9989H139.743H135.219H135.211L135.165 34.998H135.157L135.111 34.9962C133.998 34.9439 133.104 34.0179 133.104 32.8924V28.3686C133.104 28.3061 133.107 28.2437 133.113 28.1831V13.8724C133.107 13.8108 133.104 13.7493 133.104 13.6868V9.16306C133.104 8.00392 134.052 7.05647 135.211 7.05647H147.502C148.661 7.05647 149.608 8.00392 149.608 9.16306V13.6868C149.608 14.8459 148.66 15.7934 147.502 15.7934H141.85Z" fill="#EEF2F4"/>
<path fill-rule="evenodd" clip-rule="evenodd" d="M169.482 30.631H172.244C172.824 30.631 173.297 31.1048 173.297 31.6839V33.9462C173.297 34.5262 172.823 34.999 172.244 34.999H167.688H165.349H154.769C153.782 34.999 152.976 34.1933 152.976 33.2058V8.84888C152.976 7.86133 153.782 7.05562 154.769 7.05562H167.688C168.675 7.05562 169.482 7.86133 169.482 8.84888V30.6301V30.631ZM160.316 15.772H162.951C163.153 15.772 163.317 15.9362 163.317 16.1376V25.8751C163.317 26.0765 163.153 26.2407 162.951 26.2407H160.316C160.114 26.2407 159.95 26.0765 159.95 25.8751V16.1376C159.95 15.9362 160.114 15.772 160.316 15.772Z" fill="#EEF2F4"/>
<path fill-rule="evenodd" clip-rule="evenodd" d="M199.129 15.7719V26.2406H204.781C205.94 26.2406 206.888 27.188 206.888 28.3472V32.8709C206.888 34.03 205.939 34.9775 204.781 34.9775H197.022H192.499H192.49L192.444 34.9766H192.436L192.39 34.9747C191.277 34.9225 190.384 33.9965 190.384 32.8709V28.3472C190.384 28.2847 190.386 28.2222 190.392 28.1616V13.8509C190.386 13.7894 190.384 13.7278 190.384 13.6653V9.14162C190.384 7.98247 191.331 7.03502 192.49 7.03502H204.781C205.94 7.03502 206.888 7.98247 206.888 9.14162V13.6653C206.888 14.8245 205.939 15.7719 204.781 15.7719H199.129Z" fill="#EEF2F4"/>
<path fill-rule="evenodd" clip-rule="evenodd" d="M67.4681 7.03513H73.4774C74.464 7.03513 75.2706 7.84085 75.2706 8.8284V33.1853C75.2706 34.1728 74.464 34.9786 73.4774 34.9786H65.3615H60.8378H60.558C59.5947 34.9786 58.8039 34.2111 58.7666 33.2562C58.7433 33.1312 58.7312 33.0034 58.7312 32.872V5.10665C58.7312 3.94844 59.6787 3.00099 60.8378 3.00099H65.3615C66.5207 3.00099 67.4681 3.94844 67.4681 5.10665V7.0342V7.03513ZM65.7 15.7721H68.3363C68.5377 15.7721 68.7019 15.9362 68.7019 16.1376V25.8751C68.7019 26.0766 68.5377 26.2407 68.3363 26.2407H65.7C65.4986 26.2407 65.3345 26.0766 65.3345 25.8751V16.1376C65.3345 15.9362 65.4986 15.7721 65.7 15.7721Z" fill="#EEF2F4"/>
<path fill-rule="evenodd" clip-rule="evenodd" d="M184.464 30.6096H186.901C187.481 30.6096 187.954 31.0833 187.954 31.6625V33.9248C187.954 34.5048 187.48 34.9776 186.901 34.9776H182.357H181.865H177.834C176.675 34.9776 175.727 34.0302 175.727 32.872V5.10665C175.727 3.94844 176.675 3.00099 177.834 3.00099H182.357C183.517 3.00099 184.464 3.94844 184.464 5.10665V30.6087V30.6096Z" fill="#EEF2F4"/>
</g>
<g filter="url(#filter1_dd_104_1211)">
<path fill-rule="evenodd" clip-rule="evenodd" d="M10.0885 7.05645H7.0354C5.36523 7.05645 4 8.42261 4 10.0919V31.9645C4 33.6337 5.36616 34.9999 7.0354 34.9999H42.3486C44.0188 34.9999 45.384 33.6337 45.384 31.9645V10.0919C45.384 8.42168 44.0179 7.05645 42.3486 7.05645H39.3039V4.65144C39.3039 3.74315 38.5607 3.00085 37.6533 3.00085H32.2166C31.3084 3.00085 30.5661 3.74409 30.5661 4.65144V7.05645H18.8254V4.53487C18.8254 3.69093 18.1354 3.00085 17.2914 3.00085H11.6225C10.7786 3.00085 10.0885 3.69093 10.0885 4.53487V7.05645ZM15.599 19.2032C15.599 19.841 15.0174 20.3595 14.2995 20.3595C13.5827 20.3595 13 19.842 13 19.2032H13.001V16.599H10.1563C9.51849 16.599 9 16.0174 9 15.2995C9 14.5827 9.51756 14 10.1563 14V14.001H13.001V11.1563C13.001 10.5185 13.5827 10 14.3005 10C15.0174 10 15.6 10.5176 15.6 11.1563H15.599V14.001H18.2032C18.841 14.001 19.3595 14.5827 19.3595 15.3005C19.3595 16.0174 18.842 16.6 18.2032 16.6V16.599H15.599V19.2032ZM19.5892 24.2404C19.5892 24.9256 20.1077 25.4807 20.7456 25.4807H28.7924V25.4817C29.4312 25.4817 29.9488 24.9256 29.9488 24.2414C29.9488 23.5562 29.4303 23.001 28.7924 23.001H20.7456V23C20.1068 23 19.5892 23.5562 19.5892 24.2404ZM19.5892 28.7586C19.5892 29.4438 20.1077 29.999 20.7456 29.999H28.7924V30C29.4312 30 29.9488 29.4438 29.9488 28.7596C29.9488 28.0744 29.4303 27.5193 28.7924 27.5193H20.7456V27.5183C20.1068 27.5183 19.5892 28.0744 19.5892 28.7586ZM30 15.2995C30 16.0174 30.5185 16.599 31.1563 16.599H39.2032V16.6C39.842 16.6 40.3595 16.0174 40.3595 15.3005C40.3595 14.5827 39.841 14.001 39.2032 14.001H31.1563V14C30.5176 14 30 14.5827 30 15.2995Z" fill="#EEF2F4"/>
</g>
<defs>
<filter id="filter0_dd_104_1211" x="54.7312" y="0" width="156.156" height="39.999" filterUnits="userSpaceOnUse" color-interpolation-filters="sRGB">
<feFlood flood-opacity="0" result="BackgroundImageFix"/>
<feColorMatrix in="SourceAlpha" type="matrix" values="0 0 0 0 0 0 0 0 0 0 0 0 0 0 0 0 0 0 127 0" result="hardAlpha"/>
<feMorphology radius="1" operator="dilate" in="SourceAlpha" result="effect1_dropShadow_104_1211"/>
<feOffset dy="1"/>
<feGaussianBlur stdDeviation="1.5"/>
<feColorMatrix type="matrix" values="0 0 0 0 0 0 0 0 0 0 0 0 0 0 0 0 0 0 0.15 0"/>
<feBlend mode="normal" in2="BackgroundImageFix" result="effect1_dropShadow_104_1211"/>
<feColorMatrix in="SourceAlpha" type="matrix" values="0 0 0 0 0 0 0 0 0 0 0 0 0 0 0 0 0 0 127 0" result="hardAlpha"/>
<feOffset dy="1"/>
<feGaussianBlur stdDeviation="1"/>
<feColorMatrix type="matrix" values="0 0 0 0 0 0 0 0 0 0 0 0 0 0 0 0 0 0 0.3 0"/>
<feBlend mode="normal" in2="effect1_dropShadow_104_1211" result="effect2_dropShadow_104_1211"/>
<feBlend mode="normal" in="SourceGraphic" in2="effect2_dropShadow_104_1211" result="shape"/>
</filter>
<filter id="filter1_dd_104_1211" x="0" y="0.000854492" width="49.384" height="39.999" filterUnits="userSpaceOnUse" color-interpolation-filters="sRGB">
<feFlood flood-opacity="0" result="BackgroundImageFix"/>
<feColorMatrix in="SourceAlpha" type="matrix" values="0 0 0 0 0 0 0 0 0 0 0 0 0 0 0 0 0 0 127 0" result="hardAlpha"/>
<feMorphology radius="1" operator="dilate" in="SourceAlpha" result="effect1_dropShadow_104_1211"/>
<feOffset dy="1"/>
<feGaussianBlur stdDeviation="1.5"/>
<feColorMatrix type="matrix" values="0 0 0 0 0 0 0 0 0 0 0 0 0 0 0 0 0 0 0.15 0"/>
<feBlend mode="normal" in2="BackgroundImageFix" result="effect1_dropShadow_104_1211"/>
<feColorMatrix in="SourceAlpha" type="matrix" values="0 0 0 0 0 0 0 0 0 0 0 0 0 0 0 0 0 0 127 0" result="hardAlpha"/>
<feOffset dy="1"/>
<feGaussianBlur stdDeviation="1"/>
<feColorMatrix type="matrix" values="0 0 0 0 0 0 0 0 0 0 0 0 0 0 0 0 0 0 0.3 0"/>
<feBlend mode="normal" in2="effect1_dropShadow_104_1211" result="effect2_dropShadow_104_1211"/>
<feBlend mode="normal" in="SourceGraphic" in2="effect2_dropShadow_104_1211" result="shape"/>
</filter>
</defs>
</svg>
