<svg width="26" height="26" viewBox="0 0 26 26" fill="none" xmlns="http://www.w3.org/2000/svg">
<path fill-rule="evenodd" clip-rule="evenodd" d="M12.407 2.90905C12.5446 2.79129 12.7651 2.78117 13.0003 2.78063C13.0847 2.78045 13.2876 2.78993 13.3666 2.8061C13.5694 2.84755 13.4999 2.8266 13.5926 2.90987C14.121 2.90138 14.7416 3.58169 14.9147 4.00778C15.1966 4.70192 15.0556 5.42279 14.6744 5.91814C14.3742 6.24318 14.1476 6.52061 13.5545 6.66069C13.2435 6.7715 12.7579 6.76915 12.4469 6.66195C12.2049 6.60334 11.9474 6.48078 11.7907 6.37295C11.5518 6.2085 11.5109 6.11204 11.325 5.91986C10.9487 5.40725 10.7948 4.71962 11.089 4.01221C11.2611 3.59849 11.8543 2.90219 12.4071 2.90896L12.407 2.90905ZM8.85835 14.6761V16.6769L11.2231 14.3094C11.3366 14.1952 11.4335 14.1115 11.5125 14.057C11.5928 14.0026 11.6994 13.9747 11.8309 13.9747C12.004 13.9747 12.1451 14.0238 12.2518 14.1208C12.3584 14.2178 12.411 14.336 12.411 14.4768C12.411 14.6455 12.321 14.8129 12.1397 14.9789L10.6762 16.3088L12.3625 18.6283C12.4816 18.7891 12.5716 18.9299 12.6312 19.0508C12.6906 19.1704 12.7197 19.2886 12.7197 19.4028C12.7197 19.529 12.6671 19.6393 12.5633 19.7336C12.4595 19.8267 12.3182 19.8732 12.1397 19.8732C11.9721 19.8732 11.8351 19.8386 11.7299 19.7695C11.6247 19.7018 11.536 19.6101 11.4627 19.4959C11.3893 19.3816 11.3242 19.278 11.2675 19.185L9.84423 17.0833L8.85845 17.9893V19.169C8.85845 19.4082 8.80169 19.5848 8.68819 19.7004C8.57468 19.816 8.42786 19.8731 8.25073 19.8731C8.14692 19.8731 8.04856 19.8465 7.95445 19.7947C7.85892 19.7429 7.78692 19.6738 7.73572 19.5848C7.69694 19.5131 7.67482 19.428 7.66654 19.3324C7.65826 19.2367 7.65412 19.0972 7.65412 18.9166V14.6747C7.65412 14.4408 7.70814 14.2668 7.81468 14.15C7.92132 14.033 8.06664 13.9746 8.25082 13.9746C8.43078 13.9746 8.5776 14.0317 8.68969 14.1472C8.80188 14.2628 8.85863 14.4395 8.85863 14.676L8.85835 14.6761ZM18.8129 17.458V18.5514C18.8129 18.6975 18.7976 18.8131 18.7686 18.8994C18.7381 18.9871 18.6841 19.0655 18.6038 19.1346C18.5235 19.2051 18.421 19.2728 18.2964 19.3379C17.9378 19.5239 17.5917 19.6594 17.2594 19.7457C16.9272 19.8307 16.5643 19.8733 16.1726 19.8733C15.7158 19.8733 15.299 19.8055 14.9238 19.6713C14.5472 19.5359 14.2274 19.3405 13.9629 19.0828C13.6971 18.8264 13.4936 18.5155 13.3524 18.1501C13.2098 17.7835 13.1392 17.3756 13.1392 16.924C13.1392 16.4803 13.2085 16.075 13.3455 15.7057C13.484 15.3377 13.6861 15.0255 13.9547 14.7679C14.2219 14.5115 14.5473 14.3149 14.9321 14.1793C15.3157 14.0425 15.7504 13.9747 16.2377 13.9747C16.6378 13.9747 16.9923 14.0266 17.2997 14.1288C17.6085 14.2311 17.859 14.36 18.0501 14.5154C18.2425 14.6709 18.3865 14.8356 18.4848 15.0096C18.5817 15.1837 18.6302 15.3377 18.6302 15.4733C18.6302 15.6181 18.5735 15.7417 18.4613 15.8439C18.3492 15.9475 18.2149 15.998 18.057 15.998C17.9712 15.998 17.8881 15.9794 17.8078 15.9396C17.7275 15.901 17.6611 15.8465 17.6071 15.7775C17.4575 15.5543 17.3329 15.3855 17.2305 15.2713C17.1267 15.1584 16.9882 15.0614 16.8152 14.9843C16.6407 14.9059 16.4178 14.8674 16.1479 14.8674C15.8696 14.8674 15.6203 14.9139 15.4016 15.0056C15.1829 15.0972 14.996 15.2314 14.8408 15.4067C14.6857 15.5808 14.5667 15.796 14.4837 16.0497C14.402 16.3048 14.3605 16.5865 14.3605 16.8947C14.3605 17.5643 14.521 18.0784 14.8409 18.4398C15.1608 18.7997 15.6079 18.9804 16.1798 18.9804C16.4581 18.9804 16.7197 18.9459 16.9648 18.8755C17.2085 18.8051 17.4577 18.7054 17.7082 18.5752V17.6493H16.7765C16.5522 17.6493 16.3818 17.6174 16.267 17.5523C16.1521 17.4871 16.0953 17.3769 16.0953 17.2201C16.0953 17.0939 16.1438 16.9876 16.2393 16.9053C16.3349 16.8215 16.465 16.7804 16.6312 16.7804H17.9976C18.1652 16.7804 18.3078 16.795 18.4241 16.8229C18.5404 16.8522 18.6345 16.9159 18.7051 17.0142C18.7771 17.1125 18.8131 17.2613 18.8131 17.4579L18.8129 17.458ZM3.61026 7.53011C3.54936 7.65077 3.09449 7.98285 2.93562 8.17422C2.70626 8.45066 2.6432 8.66551 2.48367 9.01411L2.20471 10.257C2.26334 10.507 2.13854 10.944 2.08358 11.1863L1.90475 12.1998L0.248 21.7859C0.203765 21.9573 0.174682 22.1551 0.144188 22.3344C0.113694 22.514 0.0912941 22.7751 0 22.9142L0.00216471 23.7737L0.107482 24.0257C0.186918 24.2775 0.207153 24.3839 0.3584 24.63C0.825506 25.3905 1.53242 25.8636 2.53741 25.9874L3.65261 25.9997L4.74588 26L5.84988 25.9999L6.94701 26L8.05101 25.9999L9.14814 26L10.2521 25.9999L11.3493 26L12.4533 25.9999L13.5504 26L14.6544 25.9999L15.7515 26L16.8555 25.9999L17.9527 26L19.0567 25.9999L20.1538 26L21.2578 25.9999L22.3549 26L23.4554 25.9879C24.458 25.8653 25.181 25.3962 25.643 24.6314C25.8116 24.3524 25.8152 24.2538 25.9059 23.9843L25.998 23.7732L26 22.9149C25.9081 22.7734 25.929 22.7591 25.8562 22.3345C25.8225 22.1379 25.7837 21.9365 25.7538 21.7358C25.6793 21.3427 25.3946 20.0437 25.4498 19.7475L25.2056 18.5637L25.0168 17.5217L24.8321 16.4066L24.6478 15.406L24.2791 13.2601L24.0954 12.2315L23.9103 11.1264L23.7267 10.1328L23.5152 9.01439C23.3502 8.66045 23.3074 8.46981 23.0652 8.17431C22.904 7.97752 22.4536 7.65791 22.3896 7.53246C22.0487 7.42057 21.7912 7.24392 21.3544 7.17329C20.7773 7.07991 18.0459 7.12751 17.3324 7.12164C17.4183 6.83616 17.5743 6.60659 17.6892 6.2812C17.8091 5.94171 17.8793 5.4954 17.9667 5.36354C17.9167 5.17632 17.9351 5.09324 17.9586 4.89537C17.9624 4.47849 17.9215 4.07579 17.8315 3.6888C17.7429 3.30733 17.5998 3.05012 17.4968 2.70648C17.3757 2.59658 17.0228 1.80698 16.3289 1.22781C15.4751 0.514984 14.8372 0.390806 14.6792 0.261751C13.4736 0.00923962 12.6008 -0.173732 11.367 0.265453C8.97365 1.11745 7.59087 3.41697 8.1712 5.83542C8.29986 6.37142 8.52781 6.68642 8.66795 7.12173C7.7472 7.12353 6.82118 7.1136 5.90155 7.12335C4.12772 7.14214 4.86871 7.11929 3.61026 7.53039V7.53011Z" fill="#535C69"/>
</svg>
