<svg width="26" height="26" viewBox="0 0 26 26" fill="none" xmlns="http://www.w3.org/2000/svg">
<path fill-rule="evenodd" clip-rule="evenodd" d="M0.451172 5.6975C0.756343 6.02425 6.11516 8.63205 6.65856 8.9068C7.32724 9.24467 12.7758 12.053 12.9673 12.0582C13.2908 12.0674 22.2099 7.41139 23.9613 6.55412C24.4288 6.32549 25.1079 6.01542 25.5163 5.74558C25.0354 5.42079 13.0728 0.00305336 13.0357 0.000109651C12.6819 -0.027365 1.85174 5.11693 0.451172 5.69717V5.6975Z" fill="#535C69"/>
<path fill-rule="evenodd" clip-rule="evenodd" d="M0 20.3681L12.2656 25.9667L12.2603 13.2024C10.2573 12.1764 8.1723 11.08 6.10379 10.0811C5.24737 9.66735 0.414 7.10632 0.0115934 7.05268L0 20.3681ZM25.9522 20.3926C25.9833 18.4147 26.0495 8.55495 25.9369 7.01703L22.8916 8.54645C21.0291 9.52736 14.9134 12.4835 13.7331 13.207L13.7405 26L25.9519 20.3926H25.9522Z" fill="#535C69"/>
</svg>
